<svg width="232" height="80" viewBox="0 0 232 80" fill="none" xmlns="http://www.w3.org/2000/svg">
<g clip-path="url(#clip0_2101_1301)">
<path d="M22.3809 13.9014C39.7873 9.2296 56.9631 4.61867 74.1388 0.00976562C74.2562 0.14986 74.3756 0.287924 74.493 0.428018C63.2436 14.9897 51.9941 29.5494 40.4735 44.4623C42.455 44.5598 43.9993 44.6349 45.8594 44.7283C45.8594 50.4904 45.9423 56.1003 45.7399 61.7C45.7177 62.301 44.0499 62.8451 42.961 63.5314C35.9842 46.7018 29.2544 30.4793 22.3809 13.9014Z" fill="#E3572D"/>
<path d="M28.1292 80.0093C18.8046 62.5665 9.63579 45.4181 0.292969 27.9408C3.72164 27.1876 6.80825 26.5094 10.2329 25.7562C8.87477 23.1797 7.64822 20.8529 6.21522 18.1363C9.18039 17.4906 11.8986 16.8977 14.963 16.2318C13.7992 13.568 12.7528 11.1762 11.4675 8.23828C16.0985 8.61593 20.2193 8.95297 25.0567 9.34888C22.2697 10.0148 20.1384 10.5245 17.6387 11.1214C17.9221 12.035 18.1042 12.8594 18.424 13.6289C24.9191 29.2179 31.4566 44.7907 37.9031 60.4001C38.6156 62.1259 39.6579 62.8325 41.435 63.1167C46.3594 63.9065 51.2575 64.8689 56.4005 66.3815C47.0941 70.8686 37.7857 75.3537 28.1292 80.0093ZM7.18067 29.6849C15.0379 45.3592 22.717 60.6803 30.5175 76.243C34.7983 74.3892 38.7835 72.6655 42.7688 70.9397C42.696 70.7427 42.6231 70.5437 42.5502 70.3468C39.2167 71.1833 35.8811 72.0198 32.3229 72.9132C25.2935 57.8743 18.3107 42.935 11.253 27.8373C9.76128 28.5134 8.65415 29.0169 7.18067 29.6849ZM49.5472 66.8221C49.4966 66.6089 49.446 66.3978 49.3954 66.1846C45.6692 65.8293 41.9491 65.3704 38.2148 65.1633C36.4195 65.0638 35.5512 64.2842 34.8873 62.7025C29.1007 48.9489 23.2554 35.2197 17.4161 21.4884C16.9404 20.3676 16.3697 19.2875 15.809 18.1139C14.4914 18.5464 13.4369 18.8915 12.2103 19.2915C12.7062 20.461 13.0645 21.3625 13.4652 22.2437C19.8307 36.2348 26.2023 50.224 32.5678 64.2151C34.7153 68.9357 34.7133 68.9865 39.915 68.3205C43.1372 67.9104 46.3372 67.3277 49.5472 66.8221Z" fill="#C2DF93"/>
<path d="M213.719 36.918C219.945 38.6052 225.41 40.6437 229.504 45.1856C232.927 48.9823 232.7 53.4166 228.954 57.1464C224.12 61.9583 217.935 64.3338 211.592 66.2891C194.066 71.6898 176.036 73.0197 157.826 72.707C152.396 72.6136 146.971 72.2948 141.543 72.0796C141.539 71.8583 141.535 71.635 141.533 71.4137C142.419 71.4137 143.306 71.4259 144.192 71.4117C153.928 71.2533 163.692 71.505 173.393 70.8269C187.134 69.8666 200.729 67.6514 213.438 61.9583C216.887 60.4132 220.24 58.2935 223.064 55.7881C227.77 51.6137 227.468 46.1601 222.515 42.2598C219.987 40.266 216.99 38.8712 213.719 36.918Z" fill="#E3572D"/>
<path d="M94.9219 27.2593C88.0159 20.1247 81.11 12.992 74.0786 5.72947C74.9125 4.54781 75.6553 3.49608 76.6693 2.05859C83.0774 10.5414 89.2405 18.6994 95.4036 26.8573C95.2437 26.9913 95.0838 27.1253 94.9219 27.2593Z" fill="#E3572D"/>
<path d="M73.016 20.3382C71.7247 20.9229 71.0285 21.5117 70.4334 21.4244C69.9456 21.3533 69.5772 20.4742 69.1562 19.9544C69.7371 19.4996 70.2796 18.7748 70.9131 18.6814C71.3503 18.6164 71.915 19.4286 73.016 20.3382Z" fill="#E3572D"/>
<path d="M69.2573 25.1621C69.2573 24.3297 69.2573 23.6576 69.2573 22.7277C70.1256 22.6648 70.9433 22.6039 71.7995 22.543C72.7062 25.0809 71.7975 25.753 69.2573 25.1621Z" fill="#E3572D"/>
<path d="M73.3682 21.6668C73.3682 20.3816 73.3682 19.6892 73.3682 18.7898C74.1818 18.7126 74.9307 18.6416 75.9973 18.54C75.9973 19.4943 76.2969 20.5217 75.9204 20.9359C75.4752 21.4292 74.447 21.3947 73.3682 21.6668Z" fill="#E3572D"/>
<path d="M75.8937 25.243C75.076 25.243 74.3311 25.243 73.6025 25.243C73.1572 22.5772 73.1572 22.5772 75.8937 22.703C75.8937 23.4969 75.8937 24.303 75.8937 25.243Z" fill="#E3572D"/>
<path d="M54.2412 62V30.5818H60.1757V56.4582H73.703V62H54.2412ZM78.3037 35.1636V29.9273H84.2382V35.1636H78.3037ZM78.3037 62V38.4364H84.2382V62H78.3037ZM97.6047 62L89.0519 38.4364H94.9865L100.572 54.7564L106.157 38.4364H112.092L103.539 62H97.6047ZM126.59 62.6545C124.175 62.6545 122.044 62.1382 120.197 61.1055C118.364 60.0582 116.924 58.6255 115.877 56.8073C114.844 54.9745 114.328 52.88 114.328 50.5236C114.328 47.9491 114.837 45.7091 115.855 43.8036C116.874 41.8982 118.277 40.4218 120.066 39.3745C121.855 38.3127 123.914 37.7818 126.241 37.7818C128.714 37.7818 130.815 38.3636 132.546 39.5273C134.277 40.6909 135.557 42.3273 136.386 44.4364C137.215 46.5455 137.506 49.0255 137.259 51.8764H131.39V49.6945C131.39 47.2945 131.004 45.5709 130.234 44.5236C129.477 43.4618 128.234 42.9309 126.503 42.9309C124.481 42.9309 122.99 43.5491 122.03 44.7855C121.084 46.0073 120.612 47.8182 120.612 50.2182C120.612 52.4145 121.084 54.1164 122.03 55.3236C122.99 56.5164 124.394 57.1127 126.241 57.1127C127.404 57.1127 128.401 56.8582 129.23 56.3491C130.059 55.84 130.692 55.1055 131.128 54.1455L137.063 55.8473C136.175 58 134.772 59.6727 132.852 60.8655C130.946 62.0582 128.859 62.6545 126.59 62.6545ZM118.779 51.8764V47.4691H134.401V51.8764H118.779ZM151.847 62.6545C148.88 62.6545 146.48 61.9855 144.647 60.6473C142.829 59.2945 141.724 57.3891 141.331 54.9309L147.396 54.0145C147.644 55.12 148.189 55.9855 149.033 56.6109C149.891 57.2364 150.975 57.5491 152.284 57.5491C153.36 57.5491 154.189 57.3455 154.771 56.9382C155.353 56.5164 155.644 55.9345 155.644 55.1927C155.644 54.7273 155.527 54.3564 155.295 54.08C155.062 53.7891 154.538 53.5055 153.724 53.2291C152.924 52.9527 151.673 52.5891 149.971 52.1382C148.051 51.6436 146.516 51.0909 145.367 50.48C144.218 49.8691 143.389 49.1418 142.88 48.2982C142.371 47.44 142.116 46.4073 142.116 45.2C142.116 43.6873 142.502 42.3782 143.273 41.2727C144.044 40.1527 145.127 39.2945 146.524 38.6982C147.935 38.0873 149.593 37.7818 151.498 37.7818C153.345 37.7818 154.982 38.0655 156.407 38.6327C157.833 39.2 158.982 40.0073 159.855 41.0545C160.742 42.1018 161.287 43.3382 161.491 44.7636L155.425 45.8545C155.324 44.9818 154.945 44.2909 154.291 43.7818C153.636 43.2727 152.749 42.9745 151.629 42.8873C150.538 42.8145 149.658 42.96 148.989 43.3236C148.335 43.6873 148.007 44.2109 148.007 44.8945C148.007 45.3018 148.145 45.6436 148.422 45.92C148.713 46.1964 149.302 46.48 150.189 46.7709C151.091 47.0618 152.458 47.44 154.291 47.9055C156.08 48.3709 157.513 48.9164 158.589 49.5418C159.68 50.1527 160.473 50.8945 160.967 51.7673C161.462 52.6255 161.709 53.6655 161.709 54.8873C161.709 57.3018 160.836 59.2 159.091 60.5818C157.345 61.9636 154.931 62.6545 151.847 62.6545ZM181.096 62C179.467 62.3055 177.867 62.4364 176.296 62.3927C174.74 62.3636 173.344 62.0945 172.107 61.5855C170.885 61.0618 169.955 60.2255 169.315 59.0764C168.733 58 168.427 56.9091 168.398 55.8036C168.369 54.6836 168.355 53.4182 168.355 52.0073V31.8909H174.289V51.6582C174.289 52.5745 174.296 53.4036 174.311 54.1455C174.34 54.8727 174.493 55.4545 174.769 55.8909C175.293 56.72 176.129 57.1709 177.278 57.2436C178.427 57.3164 179.7 57.2582 181.096 57.0691V62ZM164.34 43.0182V38.4364H181.096V43.0182H164.34ZM193.347 62.6545C191.66 62.6545 190.227 62.3345 189.049 61.6945C187.886 61.04 186.998 60.1745 186.387 59.0982C185.791 58.0073 185.493 56.8073 185.493 55.4982C185.493 54.4073 185.66 53.4109 185.995 52.5091C186.329 51.6073 186.867 50.8145 187.609 50.1309C188.366 49.4327 189.376 48.8509 190.642 48.3855C191.515 48.0655 192.555 47.7818 193.762 47.5345C194.969 47.2873 196.336 47.0545 197.864 46.8364C199.391 46.6036 201.071 46.3491 202.904 46.0727L200.766 47.2509C200.766 45.8545 200.431 44.8291 199.762 44.1745C199.093 43.52 197.973 43.1927 196.402 43.1927C195.529 43.1927 194.62 43.4036 193.675 43.8255C192.729 44.2473 192.067 44.9964 191.689 46.0727L186.322 44.3709C186.918 42.4218 188.038 40.8364 189.682 39.6145C191.326 38.3927 193.566 37.7818 196.402 37.7818C198.482 37.7818 200.329 38.1018 201.944 38.7418C203.558 39.3818 204.78 40.4873 205.609 42.0582C206.075 42.9309 206.351 43.8036 206.438 44.6764C206.526 45.5491 206.569 46.5236 206.569 47.6V62H201.376V57.1564L202.118 58.16C200.969 59.7455 199.726 60.8945 198.387 61.6073C197.064 62.3055 195.384 62.6545 193.347 62.6545ZM194.613 57.9855C195.704 57.9855 196.62 57.7964 197.362 57.4182C198.118 57.0255 198.715 56.5818 199.151 56.0873C199.602 55.5927 199.907 55.1782 200.067 54.8436C200.373 54.2036 200.547 53.4618 200.591 52.6182C200.649 51.76 200.678 51.0473 200.678 50.48L202.424 50.9164C200.664 51.2073 199.238 51.4545 198.147 51.6582C197.056 51.8473 196.176 52.0218 195.507 52.1818C194.838 52.3418 194.249 52.5164 193.74 52.7055C193.158 52.9382 192.686 53.1927 192.322 53.4691C191.973 53.7309 191.711 54.0218 191.536 54.3418C191.376 54.6618 191.296 55.0182 191.296 55.4109C191.296 55.9491 191.427 56.4145 191.689 56.8073C191.966 57.1855 192.351 57.4764 192.846 57.68C193.34 57.8836 193.929 57.9855 194.613 57.9855Z" fill="white"/>
</g>
<defs>
<clipPath id="clip0_2101_1301">
<rect width="232" height="80" fill="white"/>
</clipPath>
</defs>
</svg>
