<svg width="159" height="40" viewBox="0 0 159 40" fill="none" xmlns="http://www.w3.org/2000/svg">
<path d="M0 10.2042V30.6128L16.7155 40V11.8196L10.9472 17.2207V31.4628L9.56341 30.7015V18.3505L5.99989 21.5451V28.7408L4.56449 27.9512V12.8658L17.4999 5.32306V0L0 10.2042Z" fill="white"/>
<path d="M17.4999 0V5.32306L30.4354 12.8658V27.9512L29 28.7408V21.5451L25.4365 18.3505V30.7015L24.0527 31.4628V17.2207L18.2844 11.8196V40L35 30.6128V10.2042L17.4999 0Z" fill="white"/>
<path d="M43.9998 32V8H48.5332V17.8667H59.2665V8H63.7998V32H59.2665V22.1H48.5332V32H43.9998Z" fill="white"/>
<path d="M75.7457 32.5C73.9346 32.5 72.3457 32.0944 70.979 31.2833C69.6123 30.4722 68.5457 29.3556 67.779 27.9333C67.0234 26.5 66.6457 24.8556 66.6457 23C66.6457 21.1222 67.0346 19.4722 67.8123 18.05C68.5901 16.6167 69.6623 15.5 71.029 14.7C72.3957 13.9 73.9679 13.5 75.7457 13.5C77.5568 13.5 79.1457 13.9056 80.5123 14.7167C81.8901 15.5278 82.9623 16.65 83.729 18.0833C84.4957 19.5056 84.879 21.1444 84.879 23C84.879 24.8667 84.4901 26.5167 83.7123 27.95C82.9457 29.3722 81.8734 30.4889 80.4957 31.3C79.129 32.1 77.5457 32.5 75.7457 32.5ZM75.7457 28.2667C77.2012 28.2667 78.2846 27.7778 78.9957 26.8C79.7179 25.8111 80.079 24.5444 80.079 23C80.079 21.4 79.7123 20.1222 78.979 19.1667C78.2568 18.2111 77.179 17.7333 75.7457 17.7333C74.7568 17.7333 73.9457 17.9556 73.3123 18.4C72.679 18.8444 72.2068 19.4611 71.8957 20.25C71.5957 21.0389 71.4457 21.9556 71.4457 23C71.4457 24.6111 71.8068 25.8944 72.529 26.85C73.2623 27.7944 74.3346 28.2667 75.7457 28.2667Z" fill="white"/>
<path d="M109.377 32V21.3667C109.377 20.1778 109.094 19.2556 108.527 18.6C107.972 17.9333 107.2 17.6 106.211 17.6C105.577 17.6 105.027 17.75 104.561 18.05C104.094 18.3389 103.727 18.75 103.461 19.2833C103.205 19.8056 103.077 20.4111 103.077 21.1L101.177 19.8333C101.177 18.6 101.466 17.5111 102.044 16.5667C102.633 15.6222 103.416 14.8889 104.394 14.3667C105.383 13.8333 106.477 13.5667 107.677 13.5667C109.733 13.5667 111.283 14.1778 112.327 15.4C113.383 16.6111 113.911 18.2 113.911 20.1667V32H109.377ZM87.6774 32V14H91.6774V19.9667H92.2441V32H87.6774ZM98.5441 32V21.3667C98.5441 20.1778 98.2608 19.2556 97.6941 18.6C97.1385 17.9333 96.3663 17.6 95.3774 17.6C94.433 17.6 93.6719 17.9278 93.0941 18.5833C92.5274 19.2278 92.2441 20.0667 92.2441 21.1L90.3441 19.7667C90.3441 18.5889 90.6385 17.5333 91.2274 16.6C91.8163 15.6667 92.6052 14.9278 93.5941 14.3833C94.5941 13.8389 95.7108 13.5667 96.9441 13.5667C98.3552 13.5667 99.5108 13.8667 100.411 14.4667C101.322 15.0667 101.994 15.8667 102.427 16.8667C102.861 17.8667 103.077 18.9667 103.077 20.1667V32H98.5441Z" fill="white"/>
<path d="M117.745 11.5V7.5H122.278V11.5H117.745ZM117.745 32V14H122.278V32H117.745Z" fill="white"/>
<path d="M131.308 32L124.775 14H129.308L133.575 26.4667L137.841 14H142.375L135.841 32H131.308Z" fill="white"/>
<path d="M148.544 32.5C147.255 32.5 146.161 32.2556 145.261 31.7667C144.372 31.2667 143.694 30.6056 143.227 29.7833C142.772 28.95 142.544 28.0333 142.544 27.0333C142.544 26.2 142.672 25.4389 142.927 24.75C143.183 24.0611 143.594 23.4556 144.161 22.9333C144.739 22.4 145.511 21.9556 146.477 21.6C147.144 21.3556 147.939 21.1389 148.861 20.95C149.783 20.7611 150.827 20.5833 151.994 20.4167C153.161 20.2389 154.444 20.0444 155.844 19.8333L154.211 20.7333C154.211 19.6667 153.955 18.8833 153.444 18.3833C152.933 17.8833 152.077 17.6333 150.877 17.6333C150.211 17.6333 149.516 17.7944 148.794 18.1167C148.072 18.4389 147.566 19.0111 147.277 19.8333L143.177 18.5333C143.633 17.0444 144.489 15.8333 145.744 14.9C147 13.9667 148.711 13.5 150.877 13.5C152.466 13.5 153.877 13.7444 155.111 14.2333C156.344 14.7222 157.277 15.5667 157.911 16.7667C158.266 17.4333 158.477 18.1 158.544 18.7667C158.611 19.4333 158.644 20.1778 158.644 21V32H154.677V28.3L155.244 29.0667C154.366 30.2778 153.416 31.1556 152.394 31.7C151.383 32.2333 150.1 32.5 148.544 32.5ZM149.511 28.9333C150.344 28.9333 151.044 28.7889 151.611 28.5C152.189 28.2 152.644 27.8611 152.977 27.4833C153.322 27.1056 153.555 26.7889 153.677 26.5333C153.911 26.0444 154.044 25.4778 154.077 24.8333C154.122 24.1778 154.144 23.6333 154.144 23.2L155.477 23.5333C154.133 23.7556 153.044 23.9444 152.211 24.1C151.377 24.2444 150.705 24.3778 150.194 24.5C149.683 24.6222 149.233 24.7556 148.844 24.9C148.4 25.0778 148.039 25.2722 147.761 25.4833C147.494 25.6833 147.294 25.9056 147.161 26.15C147.039 26.3944 146.977 26.6667 146.977 26.9667C146.977 27.3778 147.077 27.7333 147.277 28.0333C147.489 28.3222 147.783 28.5444 148.161 28.7C148.539 28.8556 148.989 28.9333 149.511 28.9333Z" fill="white"/>
</svg>
