<svg width="32" height="32" viewBox="0 0 32 32" fill="none" xmlns="http://www.w3.org/2000/svg">
<path d="M31.6708 28.4908H31.0513V12.0913C31.0513 11.9428 30.9519 11.8128 30.8088 11.7737L16.4561 7.85692C16.3129 7.81784 16.2136 7.68777 16.2136 7.53932V4.43348C16.2136 2.95196 12.7964 1.75098 8.5812 1.75098C4.36596 1.75098 0.948774 2.952 0.948774 4.43348V28.4908H0.329218C0.147391 28.4908 0 28.6382 0 28.82V29.9198C0 30.1016 0.147391 30.249 0.329218 30.249H31.6708C31.8526 30.249 32 30.1016 32 29.9198V28.82C32 28.6382 31.8526 28.4908 31.6708 28.4908ZM3.55908 24.6896C3.55908 24.8374 3.46048 24.9664 3.31835 25.0067C2.85975 25.1369 2.44099 25.2838 2.06956 25.4447C1.85142 25.5392 1.60784 25.3811 1.60784 25.1434V23.6934C1.60784 23.5664 1.68119 23.4515 1.79552 23.3961C2.1837 23.2082 2.63355 23.0372 3.13455 22.8865C3.34591 22.8228 3.55908 22.981 3.55908 23.2017V24.6896ZM3.55908 21.171C3.55908 21.3187 3.46048 21.4477 3.31835 21.4881C2.85975 21.6183 2.44099 21.7652 2.06956 21.9261C1.85142 22.0206 1.60784 21.8625 1.60784 21.6248V20.1748C1.60784 20.0478 1.68119 19.9329 1.79552 19.8775C2.1837 19.6896 2.63355 19.5186 3.13455 19.3679C3.34591 19.3043 3.55908 19.4625 3.55908 19.6831V21.171ZM3.55908 17.6524C3.55908 17.8001 3.46044 17.9291 3.31835 17.9694C2.85975 18.0996 2.44099 18.2465 2.06956 18.4074C1.85142 18.5019 1.60784 18.3438 1.60784 18.1061V16.6562C1.60784 16.5292 1.68119 16.4142 1.79552 16.3589C2.1837 16.171 2.63355 15.9999 3.13455 15.8492C3.34591 15.7856 3.55908 15.9437 3.55908 16.1645V17.6524ZM3.55908 14.1337C3.55908 14.2814 3.46044 14.4104 3.31835 14.4508C2.85975 14.581 2.44099 14.7279 2.06956 14.8888C1.85142 14.9833 1.60784 14.8252 1.60784 14.5875V13.1375C1.60784 13.0105 1.68119 12.8955 1.79552 12.8402C2.1837 12.6523 2.63355 12.4812 3.13455 12.3305C3.34591 12.267 3.55908 12.4251 3.55908 12.6458V14.1337ZM3.55908 10.6151C3.55908 10.7629 3.46048 10.8918 3.31835 10.9322C2.85975 11.0624 2.44099 11.2093 2.06956 11.3702C1.85142 11.4647 1.60784 11.3066 1.60784 11.0689V9.61896C1.60784 9.49195 1.68119 9.37698 1.79552 9.32164C2.1837 9.13376 2.63355 8.96266 3.13455 8.81195C3.34591 8.74838 3.55908 8.90653 3.55908 9.12724V10.6151ZM3.55908 7.09649C3.55908 7.24421 3.46044 7.3732 3.31835 7.41353C2.85975 7.54377 2.44099 7.69063 2.06956 7.85152C1.85142 7.94601 1.60784 7.78795 1.60784 7.55022V6.10024C1.60784 5.97323 1.68119 5.85827 1.79552 5.80293C2.1837 5.61504 2.63355 5.44395 3.13455 5.29323C3.34591 5.22966 3.55908 5.38782 3.55908 5.60852V7.09649ZM8.1653 24.0359C8.1653 24.2139 8.02367 24.3593 7.84579 24.3647C6.74923 24.3983 5.71322 24.5059 4.77853 24.6735C4.57643 24.7098 4.39078 24.555 4.39078 24.3496V22.8449C4.39078 22.6868 4.50305 22.5505 4.6585 22.5215C5.61867 22.3424 6.68971 22.227 7.82607 22.1914C8.01169 22.1855 8.16533 22.3349 8.16533 22.5206L8.1653 24.0359ZM8.1653 20.5173C8.1653 20.6952 8.02367 20.8407 7.84579 20.8461C6.74927 20.8797 5.71322 20.9873 4.77853 21.1549C4.57643 21.1912 4.39078 21.0364 4.39078 20.831V19.3263C4.39078 19.1682 4.50305 19.0319 4.6585 19.0029C5.61867 18.8238 6.68971 18.7084 7.82607 18.6728C8.01169 18.6669 8.16533 18.8163 8.16533 19.002L8.1653 20.5173ZM8.1653 16.9986C8.1653 17.1766 8.02367 17.322 7.84579 17.3275C6.74923 17.361 5.71322 17.4686 4.77853 17.6362C4.57643 17.6725 4.39078 17.5177 4.39078 17.3124V15.8076C4.39078 15.6495 4.50305 15.5132 4.6585 15.4841C5.61867 15.3051 6.68971 15.1898 7.82607 15.1541C8.01169 15.1482 8.16533 15.2976 8.16533 15.4833L8.1653 16.9986ZM8.1653 13.48C8.1653 13.658 8.02367 13.8034 7.84579 13.8089C6.74923 13.8424 5.71322 13.9501 4.77853 14.1176C4.57643 14.1539 4.39078 13.9991 4.39078 13.7937V12.289C4.39078 12.1309 4.50305 11.9946 4.6585 11.9655C5.61867 11.7865 6.68971 11.6711 7.82607 11.6354C8.01165 11.6296 8.16533 11.779 8.16533 11.9647L8.1653 13.48ZM8.1653 9.96138C8.1653 10.1394 8.02367 10.2848 7.84579 10.2902C6.74923 10.3238 5.71322 10.4314 4.77853 10.599C4.57643 10.6352 4.39078 10.4805 4.39078 10.2751V8.77043C4.39078 8.61231 4.50305 8.47595 4.6585 8.44694C5.61867 8.26785 6.68971 8.15249 7.82607 8.11684C8.01169 8.11101 8.16533 8.26041 8.16533 8.44609L8.1653 9.96138ZM8.1653 6.44273C8.1653 6.6207 8.02367 6.76615 7.84579 6.77158C6.74923 6.80507 5.71322 6.91275 4.77853 7.08033C4.57643 7.11657 4.39078 6.96181 4.39078 6.75647V5.25178C4.39078 5.09366 4.50305 4.9573 4.6585 4.92829C5.61867 4.74923 6.68971 4.63387 7.82607 4.59819C8.01169 4.59236 8.16533 4.74176 8.16533 4.92744L8.1653 6.44273ZM13.6032 5.60856C13.6032 5.38782 13.8163 5.22966 14.0277 5.29326C14.5287 5.44398 14.9786 5.61508 15.3667 5.80296C15.4811 5.8583 15.5544 5.97323 15.5544 6.10028V7.55022C15.5544 7.78795 15.3109 7.94601 15.0927 7.85152C14.7213 7.6906 14.3026 7.54373 13.8439 7.41353C13.7019 7.37317 13.6032 7.24418 13.6032 7.09649V5.60856ZM12.7715 24.3497C12.7715 24.555 12.5859 24.7098 12.3838 24.6735C11.4491 24.5059 10.4131 24.3983 9.31654 24.3648C9.13867 24.3593 8.99704 24.2139 8.99704 24.0359V22.5207C8.99704 22.335 9.15068 22.1856 9.3363 22.1914C10.4727 22.2271 11.5437 22.3424 12.5039 22.5215C12.6594 22.5505 12.7716 22.6868 12.7716 22.845L12.7715 24.3497ZM12.7715 20.831C12.7715 21.0364 12.5859 21.1911 12.3838 21.1549C11.4491 20.9873 10.4131 20.8797 9.31654 20.8461C9.13867 20.8407 8.99704 20.6952 8.99704 20.5173V19.002C8.99704 18.8163 9.15068 18.667 9.3363 18.6728C10.4727 18.7084 11.5437 18.8238 12.5039 19.0029C12.6594 19.0319 12.7716 19.1682 12.7716 19.3264L12.7715 20.831ZM12.7715 17.3124C12.7715 17.5177 12.5859 17.6725 12.3838 17.6362C11.4491 17.4687 10.4131 17.361 9.31654 17.3275C9.13867 17.3221 8.99704 17.1766 8.99704 16.9987V15.4834C8.99704 15.2977 9.15068 15.1483 9.3363 15.1542C10.4727 15.1898 11.5437 15.3052 12.5039 15.4843C12.6594 15.5133 12.7716 15.6496 12.7716 15.8077L12.7715 17.3124ZM12.7715 13.7937C12.7715 13.9991 12.5859 14.1538 12.3838 14.1176C11.4491 13.95 10.4131 13.8424 9.31654 13.8089C9.13867 13.8034 8.99704 13.658 8.99704 13.48V11.9648C8.99704 11.7791 9.15068 11.6297 9.3363 11.6355C10.4727 11.6712 11.5437 11.7866 12.5039 11.9656C12.6594 11.9946 12.7716 12.1309 12.7716 12.2891L12.7715 13.7937ZM12.7715 10.2751C12.7715 10.4805 12.5859 10.6352 12.3838 10.599C11.4491 10.4314 10.4131 10.3237 9.31654 10.2902C9.13867 10.2848 8.99704 10.1394 8.99704 9.96138V8.44612C8.99704 8.26044 9.15068 8.11104 9.3363 8.11687C10.4727 8.15252 11.5437 8.26788 12.5039 8.44698C12.6594 8.47598 12.7716 8.61231 12.7716 8.77047L12.7715 10.2751ZM12.7715 6.75651C12.7715 6.96184 12.5859 7.11661 12.3838 7.08036C11.4491 6.91279 10.4131 6.8051 9.31654 6.77162C9.13867 6.76619 8.99704 6.62074 8.99704 6.44276V4.9275C8.99704 4.74179 9.15068 4.59242 9.3363 4.59825C10.4727 4.63391 11.5437 4.74926 12.5039 4.92836C12.6594 4.95736 12.7716 5.09369 12.7716 5.25185L12.7715 6.75651ZM13.6032 10.6151V9.12724C13.6032 8.9065 13.8163 8.74834 14.0277 8.81195C14.5287 8.96266 14.9786 9.13376 15.3667 9.32164C15.4811 9.37698 15.5544 9.49191 15.5544 9.61896V11.0689C15.5544 11.3066 15.3109 11.4647 15.0927 11.3702C14.7213 11.2093 14.3026 11.0624 13.8439 10.9322C13.7018 10.8918 13.6032 10.7628 13.6032 10.6151ZM24.268 28.4908H19.1981V25.4524C19.1981 25.2706 19.3455 25.1232 19.5273 25.1232H23.9388C24.1206 25.1232 24.268 25.2706 24.268 25.4524V28.4908ZM29.4711 22.7137C29.4711 22.8955 29.3237 23.0429 29.1419 23.0429H15.0356C14.8538 23.0429 14.7064 22.8955 14.7064 22.7137V21.4436C14.7064 21.2618 14.8538 21.1144 15.0356 21.1144H29.1419C29.3237 21.1144 29.4711 21.2618 29.4711 21.4436V22.7137ZM29.4711 19.4546C29.4711 19.6364 29.3237 19.7838 29.1419 19.7838H15.0356C14.8538 19.7838 14.7064 19.6364 14.7064 19.4546V18.1845C14.7064 18.0027 14.8538 17.8553 15.0356 17.8553H29.1419C29.3237 17.8553 29.4711 18.0027 29.4711 18.1845V19.4546ZM29.4711 16.1955C29.4711 16.3773 29.3237 16.5247 29.1419 16.5247H15.0356C14.8538 16.5247 14.7064 16.3773 14.7064 16.1955V14.9254C14.7064 14.7436 14.8538 14.5962 15.0356 14.5962H29.1419C29.3237 14.5962 29.4711 14.7436 29.4711 14.9254V16.1955Z" fill="#E3572D"/>
</svg>
