<svg width="32" height="32" viewBox="0 0 32 32" fill="none" xmlns="http://www.w3.org/2000/svg">
<path d="M23.4961 6.13184L16.4961 2.13184C16.1884 1.95605 15.8115 1.95605 15.5039 2.13184L8.50387 6.13184C8.11031 6.35645 7.91695 6.81836 8.03365 7.25684C8.14986 7.69531 8.54635 8 8.99996 8H23C23.4536 8 23.8501 7.69531 23.9663 7.25684C24.083 6.81836 23.8896 6.35645 23.4961 6.13184Z" fill="#E3572D"/>
<path d="M29.768 17.3597L24.768 11.3611C24.5884 11.1453 24.3261 11.0155 24.0454 11.0028C23.7651 10.9803 23.4917 11.0955 23.2929 11.2947L20.5859 14.0011H11.414L8.70701 11.2947C8.50877 11.0955 8.23386 10.9813 7.95457 11.0028C7.67381 11.0155 7.4116 11.1453 7.23191 11.3611L2.23191 17.3597C1.98338 17.6585 1.92967 18.0735 2.09422 18.424C2.25877 18.7754 2.61179 19 2.99998 19H29C29.3882 19 29.7412 18.7754 29.9057 18.424C30.0703 18.0735 30.0166 17.6585 29.768 17.3597Z" fill="#E3572D"/>
<path d="M10 9V11.1732L11.8281 13H14V11C14 10.4477 14.4477 10 15 10H17C17.5523 10 18 10.4477 18 11V13H20.1719L22 11.1732V9H10Z" fill="#E3572D"/>
<path d="M29 28V20H22V28H21V20H11V28H10V20H3V28C2.44775 28 2 28.4473 2 29C2 29.5527 2.44775 30 3 30H29C29.5522 30 30 29.5527 30 29C30 28.4473 29.5522 28 29 28ZM24 23C24 22.4477 24.4477 22 25 22H26C26.5523 22 27 22.4477 27 23V24C27 24.5522 26.5523 25 26 25H25C24.4477 25 24 24.5522 24 24V23ZM5 23C5 22.4477 5.44769 22 6 22H7C7.55231 22 8 22.4477 8 23V24C8 24.5522 7.55231 25 7 25H6C5.44769 25 5 24.5522 5 24V23ZM14 28V23C14 22.4477 14.4477 22 15 22H17C17.5523 22 18 22.4477 18 23V28H14Z" fill="#E3572D"/>
</svg>
