<svg width="24" height="27" viewBox="0 0 24 27" fill="none" xmlns="http://www.w3.org/2000/svg">
<path fill-rule="evenodd" clip-rule="evenodd" d="M2.66667 0C1.93029 0 1.33333 0.59696 1.33333 1.33333V25.3333H0.666667C0.29848 25.3333 0 25.6319 0 26C0 26.3681 0.29848 26.6667 0.666667 26.6667H6V22.6667C6 21.9303 6.59696 21.3333 7.33333 21.3333H10C10.7364 21.3333 11.3333 21.9303 11.3333 22.6667V26.6667H23.3333C23.7015 26.6667 24 26.3681 24 26C24 25.6319 23.7015 25.3333 23.3333 25.3333H22.6667V5.33333C22.6667 4.59696 22.0697 4 21.3333 4H16V1.33333C16 0.59696 15.4031 0 14.6667 0H2.66667ZM6 4C5.63181 4 5.33333 4.29848 5.33333 4.66667V6C5.33333 6.36819 5.63181 6.66667 6 6.66667H7.33333C7.70152 6.66667 8 6.36819 8 6V4.66667C8 4.29848 7.70152 4 7.33333 4H6ZM5.33333 8.66667C5.33333 8.29848 5.63181 8 6 8H7.33333C7.70152 8 8 8.29848 8 8.66667V10C8 10.3682 7.70152 10.6667 7.33333 10.6667H6C5.63181 10.6667 5.33333 10.3682 5.33333 10V8.66667ZM6 12C5.63181 12 5.33333 12.2985 5.33333 12.6667V14C5.33333 14.3681 5.63181 14.6667 6 14.6667H7.33333C7.70152 14.6667 8 14.3681 8 14V12.6667C8 12.2985 7.70152 12 7.33333 12H6ZM5.33333 16.6667C5.33333 16.2985 5.63181 16 6 16H7.33333C7.70152 16 8 16.2985 8 16.6667V18C8 18.3681 7.70152 18.6667 7.33333 18.6667H6C5.63181 18.6667 5.33333 18.3681 5.33333 18V16.6667ZM10 4C9.63187 4 9.33333 4.29848 9.33333 4.66667V6C9.33333 6.36819 9.63187 6.66667 10 6.66667H11.3333C11.7015 6.66667 12 6.36819 12 6V4.66667C12 4.29848 11.7015 4 11.3333 4H10ZM17.3333 8.66667C17.3333 8.29848 17.6319 8 18 8H19.3333C19.7015 8 20 8.29848 20 8.66667V10C20 10.3682 19.7015 10.6667 19.3333 10.6667H18C17.6319 10.6667 17.3333 10.3682 17.3333 10V8.66667ZM18 12C17.6319 12 17.3333 12.2985 17.3333 12.6667V14C17.3333 14.3681 17.6319 14.6667 18 14.6667H19.3333C19.7015 14.6667 20 14.3681 20 14V12.6667C20 12.2985 19.7015 12 19.3333 12H18ZM17.3333 16.6667C17.3333 16.2985 17.6319 16 18 16H19.3333C19.7015 16 20 16.2985 20 16.6667V18C20 18.3681 19.7015 18.6667 19.3333 18.6667H18C17.6319 18.6667 17.3333 18.3681 17.3333 18V16.6667ZM18 20C17.6319 20 17.3333 20.2985 17.3333 20.6667V22C17.3333 22.3681 17.6319 22.6667 18 22.6667H19.3333C19.7015 22.6667 20 22.3681 20 22V20.6667C20 20.2985 19.7015 20 19.3333 20H18ZM9.33333 8.66667C9.33333 8.29848 9.63187 8 10 8H11.3333C11.7015 8 12 8.29848 12 8.66667V10C12 10.3682 11.7015 10.6667 11.3333 10.6667H10C9.63187 10.6667 9.33333 10.3682 9.33333 10V8.66667ZM10 12C9.63187 12 9.33333 12.2985 9.33333 12.6667V14C9.33333 14.3681 9.63187 14.6667 10 14.6667H11.3333C11.7015 14.6667 12 14.3681 12 14V12.6667C12 12.2985 11.7015 12 11.3333 12H10ZM9.33333 16.6667C9.33333 16.2985 9.63187 16 10 16H11.3333C11.7015 16 12 16.2985 12 16.6667V18C12 18.3681 11.7015 18.6667 11.3333 18.6667H10C9.63187 18.6667 9.33333 18.3681 9.33333 18V16.6667Z" fill="#E3572D"/>
<path d="M10 26.6667V22.6667H7.33337V26.6667H10Z" fill="#E3572D"/>
</svg>
