<svg width="32" height="32" viewBox="0 0 32 32" fill="none" xmlns="http://www.w3.org/2000/svg">
<g clip-path="url(#clip0_1_5005)">
<path d="M31.6066 15.06L16.94 0.393368C16.8161 0.2694 16.6691 0.171054 16.5072 0.103955C16.3453 0.0368562 16.1718 0.00231934 15.9966 0.00231934C15.8214 0.00231934 15.6479 0.0368562 15.486 0.103955C15.3242 0.171054 15.1771 0.2694 15.0533 0.393368L0.386626 15.06C0.200886 15.2469 0.0746644 15.4846 0.0238936 15.7431C-0.0268772 16.0016 7.89264e-05 16.2694 0.101359 16.5126C0.20264 16.7558 0.373704 16.9636 0.592959 17.1097C0.812215 17.2557 1.06983 17.3336 1.33329 17.3334H3.99996V30.6667C3.99996 31.0203 4.14043 31.3595 4.39048 31.6095C4.64053 31.8596 4.97967 32 5.33329 32H9.33329V21.3334C9.33329 20.9797 9.47377 20.6406 9.72382 20.3906C9.97387 20.1405 10.313 20 10.6666 20H21.3333C21.6869 20 22.0261 20.1405 22.2761 20.3906C22.5261 20.6406 22.6666 20.9797 22.6666 21.3334V32H26.6666C27.0202 32 27.3594 31.8596 27.6094 31.6095C27.8595 31.3595 28 31.0203 28 30.6667V17.3334H30.6666C30.9295 17.3323 31.1862 17.2535 31.4045 17.1069C31.6227 16.9603 31.7927 16.7525 31.8932 16.5095C31.9936 16.2666 32.02 15.9994 31.969 15.7415C31.9181 15.4836 31.792 15.2465 31.6066 15.06Z" fill="#E3572D"/>
<path d="M12 22.6667H20V32.0001H12V22.6667Z" fill="#E3572D"/>
</g>
<defs>
<clipPath id="clip0_1_5005">
<rect width="32" height="32" fill="white"/>
</clipPath>
</defs>
</svg>
