<svg width="32" height="32" viewBox="0 0 32 32" fill="none" xmlns="http://www.w3.org/2000/svg">
<path d="M28.8401 15.885C30.4201 13.615 31.2301 11.495 31.2301 9.57497C31.2301 6.41497 28.6601 3.84497 25.5001 3.84497C22.6251 3.84497 20.2301 5.94497 19.8351 8.75497H6.12505C5.44005 8.75497 4.84505 9.21997 4.67505 9.88497L3.65005 13.96L0.545051 26.29C0.435051 26.74 0.530051 27.21 0.815051 27.575C1.10005 27.945 1.53005 28.155 1.99505 28.155H18.5601L18.5701 28.15H30.0101C30.4701 28.15 30.9001 27.94 31.1851 27.575C31.4701 27.21 31.5701 26.74 31.4551 26.29L28.8401 15.885ZM25.5001 6.92497C26.9601 6.92497 28.1501 8.11497 28.1501 9.57497C28.1501 11.035 26.9601 12.225 25.5001 12.225C24.0401 12.225 22.8451 11.04 22.8451 9.57497C22.8451 8.10997 24.0351 6.92497 25.5001 6.92497ZM13.1201 11.47L13.2701 9.26497H19.7751C19.7701 9.36497 19.7651 9.46997 19.7651 9.57497C19.7651 9.74497 19.7751 9.91497 19.7851 10.09C19.7901 10.145 19.8001 10.205 19.8051 10.265C19.8151 10.38 19.8301 10.495 19.8451 10.615C19.8551 10.685 19.8701 10.755 19.8801 10.825C19.9001 10.935 19.9201 11.04 19.9401 11.15C19.9551 11.225 19.9751 11.305 19.9951 11.38C20.0201 11.485 20.0451 11.59 20.0751 11.695C20.0951 11.775 20.1201 11.855 20.1451 11.935C20.1801 12.04 20.2101 12.145 20.2501 12.255C20.2751 12.335 20.305 12.415 20.3351 12.5C20.3751 12.605 20.4151 12.71 20.4601 12.82C20.4901 12.9 20.5251 12.985 20.5651 13.07C20.6101 13.175 20.6551 13.285 20.7051 13.39C20.7451 13.475 20.7851 13.56 20.8251 13.645C20.8451 13.685 20.8651 13.725 20.8851 13.77H17.9951L17.9901 13.765H12.9651L13.1201 11.47ZM5.17005 10.01C5.28005 9.56997 5.67505 9.26497 6.12505 9.26497H12.7601L12.6151 11.435L12.4551 13.765H4.22505L5.17005 10.01ZM30.7851 27.265C30.5951 27.505 30.3151 27.64 30.0101 27.64H18.8051L18.2551 14.275H21.1501C21.1951 14.355 21.2401 14.43 21.2851 14.51C21.3301 14.59 21.3801 14.675 21.4301 14.76C21.4851 14.855 21.5451 14.955 21.6051 15.05C21.6551 15.13 21.7051 15.21 21.7601 15.29C21.8201 15.385 21.8801 15.475 21.9451 15.57C21.9951 15.645 22.0451 15.725 22.1001 15.8C22.1601 15.89 22.2251 15.98 22.2901 16.07C22.3401 16.145 22.3901 16.215 22.4451 16.285C22.5101 16.375 22.5751 16.46 22.6401 16.545C22.6901 16.615 22.7401 16.68 22.7901 16.745C22.8551 16.83 22.9201 16.91 22.9851 16.995C23.0351 17.055 23.0851 17.12 23.1351 17.18C23.2001 17.26 23.2651 17.335 23.3301 17.41C23.3751 17.47 23.4251 17.525 23.4701 17.58C23.5351 17.655 23.5951 17.725 23.6601 17.8C23.7051 17.85 23.7501 17.9 23.7901 17.95C23.8551 18.02 23.9151 18.09 23.9751 18.155C24.0151 18.2 24.055 18.245 24.0951 18.285C24.1601 18.355 24.2151 18.415 24.2751 18.48C24.3101 18.515 24.3451 18.55 24.3751 18.585C24.4401 18.655 24.5001 18.715 24.5601 18.775C24.5801 18.8 24.6101 18.825 24.6301 18.85C24.6901 18.91 24.7501 18.965 24.8001 19.02C24.8201 19.035 24.8401 19.055 24.8551 19.07C24.9151 19.13 24.9701 19.18 25.0201 19.23L25.0401 19.25C25.0901 19.3 25.1301 19.34 25.1701 19.375C25.1701 19.38 25.1801 19.385 25.1851 19.39C25.2651 19.465 25.3201 19.51 25.3301 19.525C25.4251 19.61 25.5701 19.61 25.6701 19.525C25.6701 19.52 25.6801 19.51 25.6951 19.5L25.7101 19.485C25.725 19.475 25.7351 19.46 25.7551 19.445C25.7651 19.435 25.7751 19.43 25.7801 19.42C25.8001 19.4 25.8201 19.385 25.8451 19.36C25.8551 19.35 25.8701 19.34 25.8801 19.325C25.9051 19.305 25.93 19.28 25.9601 19.255C25.975 19.24 25.9901 19.22 26.0051 19.205C26.0351 19.18 26.0651 19.15 26.0951 19.12C26.1151 19.1 26.1401 19.08 26.1601 19.055L26.2551 18.96C26.2551 18.96 26.3051 18.91 26.3301 18.885L26.4351 18.78C26.4651 18.75 26.4951 18.72 26.5201 18.69C26.5601 18.65 26.5951 18.61 26.6351 18.57C26.6651 18.54 26.6951 18.505 26.7301 18.475L26.8501 18.34C26.8851 18.305 26.9151 18.27 26.9501 18.235C26.9951 18.185 27.0401 18.135 27.0851 18.085C27.1201 18.05 27.1501 18.015 27.1851 17.975C27.2351 17.92 27.2851 17.86 27.3351 17.805C27.3651 17.765 27.4001 17.735 27.4301 17.695L27.6101 17.485C27.6351 17.455 27.6601 17.425 27.6851 17.395C27.7701 17.295 27.8551 17.19 27.9401 17.08C27.9601 17.055 27.9801 17.03 28.0001 17.005C28.0701 16.92 28.1351 16.835 28.2051 16.745C28.2401 16.705 28.2701 16.66 28.3051 16.62C28.3551 16.555 28.4001 16.49 28.4501 16.425L30.9601 26.415C31.0351 26.715 30.9701 27.025 30.7851 27.265Z" fill="#E3572D"/>
</svg>
