<svg width="16" height="16" viewBox="0 0 16 16" fill="none" xmlns="http://www.w3.org/2000/svg">
<g clip-path="url(#clip0_15_1256)">
<path d="M14.6667 0.666748H1.33332C1.15651 0.666748 0.986943 0.736986 0.861919 0.86201C0.736894 0.987034 0.666656 1.1566 0.666656 1.33341V14.6667C0.666656 14.8436 0.736894 15.0131 0.861919 15.1382C0.986943 15.2632 1.15651 15.3334 1.33332 15.3334H14.6667C14.8435 15.3334 15.013 15.2632 15.1381 15.1382C15.2631 15.0131 15.3333 14.8436 15.3333 14.6667V1.33341C15.3333 1.1566 15.2631 0.987034 15.1381 0.86201C15.013 0.736986 14.8435 0.666748 14.6667 0.666748ZM6.66666 13.3334H3.33332C3.15651 13.3334 2.98694 13.2632 2.86192 13.1382C2.73689 13.0131 2.66666 12.8436 2.66666 12.6667V9.33341C2.66666 9.1566 2.73689 8.98703 2.86192 8.86201C2.98694 8.73699 3.15651 8.66675 3.33332 8.66675C3.51013 8.66675 3.6797 8.73699 3.80473 8.86201C3.92975 8.98703 3.99999 9.1566 3.99999 9.33341V12.0001H6.66666C6.84347 12.0001 7.01304 12.0703 7.13806 12.1953C7.26308 12.3204 7.33332 12.4899 7.33332 12.6667C7.33332 12.8436 7.26308 13.0131 7.13806 13.1382C7.01304 13.2632 6.84347 13.3334 6.66666 13.3334ZM13.3333 6.66675C13.3333 6.84356 13.2631 7.01313 13.1381 7.13815C13.013 7.26318 12.8435 7.33341 12.6667 7.33341C12.4898 7.33341 12.3203 7.26318 12.1953 7.13815C12.0702 7.01313 12 6.84356 12 6.66675V4.00008H9.33332C9.15651 4.00008 8.98694 3.92984 8.86192 3.80482C8.73689 3.67979 8.66666 3.51023 8.66666 3.33341C8.66666 3.1566 8.73689 2.98703 8.86192 2.86201C8.98694 2.73699 9.15651 2.66675 9.33332 2.66675H12.6667C12.8435 2.66675 13.013 2.73699 13.1381 2.86201C13.2631 2.98703 13.3333 3.1566 13.3333 3.33341V6.66675Z" fill="#E3572D"/>
</g>
<defs>
<clipPath id="clip0_15_1256">
<rect width="16" height="16" fill="white"/>
</clipPath>
</defs>
</svg>
