<svg width="16" height="16" viewBox="0 0 16 16" fill="none" xmlns="http://www.w3.org/2000/svg">
<path d="M0 12.5188V13.523C0 13.7819 0.209875 13.9918 0.46875 13.9918C0.727625 13.9918 0.9375 13.7819 0.9375 13.523V12.9876H15.0625V13.523C15.0625 13.7819 15.2724 13.9918 15.5312 13.9918C15.7901 13.9918 16 13.7819 16 13.523V12.5188V10.9792H0V12.5188Z" fill="#E3572D"/>
<path d="M14.2761 7.02905H1.72394C0.773375 7.02905 0 7.80243 0 8.75302V10.0416H16V8.75302C16 7.80243 15.2266 7.02905 14.2761 7.02905Z" fill="#E3572D"/>
<path d="M6.24274 4.9541C5.80905 4.9541 5.45624 5.30688 5.45624 5.74054V6.09157H10.5437V5.74054C10.5437 5.30688 10.191 4.9541 9.7573 4.9541H6.24274Z" fill="#E3572D"/>
<path d="M4.51874 5.74058C4.51874 4.78999 5.29211 4.01664 6.24274 4.01664H9.75733C10.7079 4.01664 11.4813 4.78999 11.4813 5.74058V6.09161H13.9917V3.73224C13.9917 2.78164 13.2183 2.0083 12.2677 2.0083H3.7323C2.78171 2.0083 2.00836 2.78164 2.00836 3.73224V6.09161H4.51874V5.74058Z" fill="#E3572D"/>
</svg>
