<svg width="16" height="16" viewBox="0 0 16 16" fill="none" xmlns="http://www.w3.org/2000/svg">
<g clip-path="url(#clip0_15_1269)">
<path d="M1.98504 15.2711C1.84141 15.4865 1.89963 15.7776 2.11504 15.9212C2.19498 15.9744 2.28529 15.9999 2.37463 15.9999C2.5261 15.9999 2.67476 15.9266 2.76507 15.7911L3.12232 15.2553C2.83313 15.1284 2.5576 14.9759 2.29891 14.8003L1.98504 15.2711Z" fill="#E3572D"/>
<path d="M13.7012 14.8003C13.4425 14.9759 13.167 15.1284 12.8778 15.2553L13.2351 15.7911C13.3254 15.9266 13.474 15.9999 13.6255 15.9999C13.7148 15.9999 13.8052 15.9744 13.8851 15.9212C14.1005 15.7776 14.1587 15.4865 14.0151 15.2711L13.7012 14.8003Z" fill="#E3572D"/>
<path d="M0.968811 9.06689V10.5312C0.968811 12.8574 2.86134 14.75 5.18756 14.75H10.8126C13.1388 14.75 15.0313 12.8574 15.0313 10.5312V10.2583H7.28575C5.10659 10.2583 2.9854 9.85758 0.968811 9.06689Z" fill="#E3572D"/>
<path d="M2.53113 5.52466V1.71875C2.53113 1.28797 2.8816 0.9375 3.31238 0.9375H3.93738C4.36816 0.9375 4.71863 1.28797 4.71863 1.71875V1.94116C3.994 2.14994 3.46863 2.83 3.46863 3.61984V3.75C3.46863 4.00887 3.6785 4.21875 3.93738 4.21875H6.43738C6.69625 4.21875 6.90613 4.00887 6.90613 3.75V3.59375C6.90613 2.80853 6.37666 2.145 5.65613 1.94041V1.71875C5.65613 0.771031 4.8851 0 3.93738 0H3.31238C2.36466 0 1.59363 0.771031 1.59363 1.71875V5.14825C1.66744 5.17094 1.74032 5.19759 1.81185 5.22931C2.04963 5.335 2.28947 5.43328 2.53113 5.52466Z" fill="#E3572D"/>
<path d="M14.9726 7.32863H7.28576C5.25567 7.32863 3.28651 6.91066 1.43217 6.08644C0.928605 5.86338 0.340762 6.08938 0.117355 6.59194C-0.106051 7.09454 0.120261 7.68335 0.622855 7.90675C2.7337 8.84513 4.9752 9.32079 7.28579 9.32079H14.9727C15.5229 9.32079 15.9688 8.87494 15.9688 8.32469C15.9687 7.77444 15.5229 7.32863 14.9726 7.32863Z" fill="#E3572D"/>
</g>
<defs>
<clipPath id="clip0_15_1269">
<rect width="16" height="16" fill="white"/>
</clipPath>
</defs>
</svg>
