<svg width="22" height="22" viewBox="0 0 22 22" fill="none" xmlns="http://www.w3.org/2000/svg">
<path d="M10.1292 13.7042L8.43337 15.4C8.07587 15.7575 7.50754 15.7575 7.14087 15.4092C7.04004 15.3084 6.93921 15.2167 6.83837 15.1159C5.89421 14.1625 5.04171 13.1634 4.28087 12.1184C3.52921 11.0734 2.92421 10.0284 2.48421 8.99254C2.05337 7.94754 1.83337 6.94837 1.83337 5.99504C1.83337 5.37171 1.94337 4.77587 2.16337 4.22587C2.38337 3.66671 2.73171 3.15337 3.21754 2.69504C3.80421 2.11754 4.44587 1.83337 5.12421 1.83337C5.38087 1.83337 5.63754 1.88837 5.86671 1.99837C6.10504 2.10837 6.31587 2.27337 6.48087 2.51171L8.60754 5.50921C8.77254 5.73837 8.89171 5.94921 8.97421 6.15087C9.05671 6.34337 9.10254 6.53587 9.10254 6.71004C9.10254 6.93004 9.03837 7.15004 8.91004 7.36087C8.79087 7.57171 8.61671 7.79171 8.39671 8.01171L7.70004 8.73587C7.59921 8.83671 7.55337 8.95587 7.55337 9.10254C7.55337 9.17587 7.56254 9.24004 7.58087 9.31337C7.60837 9.38671 7.63587 9.44171 7.65421 9.49671C7.81921 9.79921 8.10337 10.1934 8.50671 10.67C8.91921 11.1467 9.35921 11.6325 9.83587 12.1184C9.92754 12.21 10.0284 12.3017 10.12 12.3934C10.4867 12.7509 10.4959 13.3375 10.1292 13.7042Z" fill="#E3572D"/>
<path d="M20.1392 16.8025C20.1392 17.0592 20.0934 17.325 20.0017 17.5817C19.9742 17.655 19.9467 17.7283 19.91 17.8017C19.7542 18.1317 19.5525 18.4433 19.2867 18.7367C18.8375 19.2317 18.3425 19.5892 17.7834 19.8183C17.7742 19.8183 17.765 19.8275 17.7559 19.8275C17.215 20.0475 16.6284 20.1667 15.9959 20.1667C15.0609 20.1667 14.0617 19.9467 13.0075 19.4975C11.9534 19.0483 10.8992 18.4433 9.85422 17.6825C9.49672 17.4167 9.13922 17.1508 8.80005 16.8667L11.7975 13.8692C12.0542 14.0617 12.2834 14.2083 12.4759 14.3092C12.5217 14.3275 12.5767 14.355 12.6409 14.3825C12.7142 14.41 12.7875 14.4192 12.87 14.4192C13.0259 14.4192 13.145 14.3642 13.2459 14.2633L13.9425 13.5758C14.1717 13.3467 14.3917 13.1725 14.6025 13.0625C14.8134 12.9342 15.0242 12.87 15.2534 12.87C15.4275 12.87 15.6109 12.9067 15.8125 12.9892C16.0142 13.0717 16.225 13.1908 16.4542 13.3467L19.4884 15.5008C19.7267 15.6658 19.8917 15.8583 19.9925 16.0875C20.0842 16.3167 20.1392 16.5458 20.1392 16.8025Z" fill="#E3572D"/>
</svg>
