<svg width="18" height="18" viewBox="0 0 18 18" fill="none" xmlns="http://www.w3.org/2000/svg">
<g clip-path="url(#clip0_3_5162)">
<path d="M15.0234 9.74673C14.9801 9.72493 14.9369 9.71405 14.8932 9.71405C14.7993 9.71405 14.7165 9.7501 14.6444 9.82236L13.9516 10.515C13.8869 10.58 13.8544 10.6593 13.8544 10.7532V13.5022C13.8544 13.9786 13.6852 14.3861 13.3458 14.7254C13.0067 15.0645 12.5989 15.2341 12.1226 15.2341H3.11725C2.64094 15.2341 2.23321 15.0645 1.89409 14.7254C1.55491 14.3861 1.38541 13.9786 1.38541 13.5022V4.49705C1.38541 4.02082 1.55491 3.61313 1.89409 3.27391C2.23321 2.93476 2.64094 2.76522 3.11725 2.76522H12.1227C12.2815 2.76522 12.4438 2.78687 12.6097 2.8302C12.6531 2.84453 12.6855 2.85185 12.7069 2.85185C12.8009 2.85185 12.8839 2.81587 12.956 2.74373L13.4864 2.21336C13.5729 2.12688 13.6055 2.02217 13.5836 1.89961C13.562 1.78413 13.497 1.70111 13.3887 1.65065C12.9993 1.4705 12.577 1.38 12.1224 1.38H3.11725C2.25857 1.38 1.52431 1.68488 0.914558 2.29464C0.304878 2.90447 0 3.63861 0 4.49732V13.5027C0 14.3613 0.304878 15.0955 0.914596 15.7053C1.52435 16.3152 2.25861 16.62 3.11728 16.62H12.1226C12.9812 16.62 13.7155 16.3152 14.3253 15.7053C14.9351 15.0955 15.2402 14.3613 15.2402 13.5027V10.0606C15.2401 9.90914 15.1676 9.80458 15.0234 9.74673Z" fill="#E3572D"/>
<path d="M17.7403 3.53396L16.5496 2.34322C16.3764 2.17008 16.1706 2.0835 15.9324 2.0835C15.6946 2.0835 15.4886 2.17008 15.3156 2.34322L8.31251 9.34626L5.46602 6.49959C5.29281 6.32634 5.0871 6.23986 4.84906 6.23986C4.61098 6.23986 4.40535 6.32634 4.2321 6.49959L3.04152 7.69017C2.86834 7.86335 2.78168 8.06905 2.78168 8.30725C2.78168 8.54532 2.86834 8.75095 3.04152 8.9242L7.6957 13.5784C7.86891 13.7517 8.07462 13.8381 8.31266 13.8381C8.5507 13.8381 8.75637 13.7517 8.92962 13.5784L17.7402 4.76783C17.9133 4.5947 18.0001 4.38895 18.0001 4.15088C18.0001 3.9128 17.9135 3.70709 17.7403 3.53396Z" fill="#E3572D"/>
</g>
<defs>
<clipPath id="clip0_3_5162">
<rect width="18" height="18" fill="white"/>
</clipPath>
</defs>
</svg>
