<svg width="14" height="14" viewBox="0 0 14 14" fill="none" xmlns="http://www.w3.org/2000/svg">
<g clip-path="url(#clip0_1_4880)">
<path d="M13.6225 6.08932C13.6222 6.089 13.6219 6.08868 13.6215 6.08836L7.91064 0.377686C7.66722 0.134155 7.34358 0 6.99933 0C6.65507 0 6.33143 0.134048 6.0879 0.377579L0.380004 6.08537C0.378081 6.0873 0.376159 6.08932 0.374236 6.09125C-0.125642 6.59401 -0.124787 7.40973 0.376693 7.91121C0.605803 8.14043 0.908401 8.27319 1.23193 8.28708C1.24507 8.28836 1.25832 8.289 1.27167 8.289H1.49928V12.4917C1.49928 13.3233 2.17593 14 3.00778 14H5.24206C5.4685 14 5.65222 13.8164 5.65222 13.5898V10.2949C5.65222 9.91542 5.96091 9.60674 6.34041 9.60674H7.65825C8.03775 9.60674 8.34643 9.91542 8.34643 10.2949V13.5898C8.34643 13.8164 8.53004 14 8.75659 14H10.9909C11.8227 14 12.4994 13.3233 12.4994 12.4917V8.289H12.7104C13.0546 8.289 13.3782 8.15495 13.6219 7.91142C14.1239 7.40909 14.1241 6.59198 13.6225 6.08932Z" fill="white"/>
</g>
<defs>
<clipPath id="clip0_1_4880">
<rect width="14" height="14" fill="white"/>
</clipPath>
</defs>
</svg>
