<svg width="210" height="72" viewBox="0 0 210 72" fill="none" xmlns="http://www.w3.org/2000/svg">
<g clip-path="url(#clip0_2223_5519)">
<path d="M20.2578 12.5108C36.0137 8.30615 51.5607 4.15631 67.1077 0.00830078C67.214 0.134386 67.322 0.258643 67.4283 0.384728C57.2456 13.4903 47.0629 26.594 36.6348 40.0156C38.4284 40.1033 39.8262 40.1709 41.5099 40.255C41.5099 45.4409 41.585 50.4898 41.4018 55.5295C41.3817 56.0704 39.872 56.5602 38.8864 57.1778C32.5712 42.0311 26.4795 27.4309 20.2578 12.5108Z" fill="#E3572D"/>
<path d="M25.4602 72.0082C17.0198 56.3097 8.72054 40.8762 0.263672 25.1466C3.36721 24.4687 6.16113 23.8583 9.261 23.1804C8.03168 20.8615 6.92144 18.7674 5.62433 16.3225C8.30832 15.7414 10.7688 15.2078 13.5426 14.6085C12.4891 12.211 11.5419 10.0584 10.3786 7.41431C14.5704 7.75419 18.3005 8.05752 22.6791 8.41385C20.1564 9.01321 18.2272 9.47187 15.9646 10.0091C16.2211 10.8314 16.3859 11.5733 16.6754 12.2658C22.5546 26.296 28.4722 40.3115 34.3073 54.3599C34.9522 55.9132 35.8957 56.5491 37.5043 56.8049C41.9617 57.5157 46.3954 58.3819 51.0507 59.7432C42.6268 63.7816 34.2011 67.8181 25.4602 72.0082ZM6.49823 26.7163C13.6104 40.8232 20.5613 54.6121 27.6221 68.6185C31.4969 66.9502 35.1043 65.3988 38.7116 63.8456C38.6457 63.6683 38.5797 63.4892 38.5138 63.312C35.4963 64.0648 32.4771 64.8177 29.2563 65.6217C22.8935 52.0868 16.5728 38.6414 10.1844 25.0534C8.83413 25.6619 7.83198 26.1151 6.49823 26.7163ZM44.8473 60.1398C44.8015 59.9479 44.7557 59.7578 44.7099 59.566C41.337 59.2462 37.9696 58.8332 34.5895 58.6468C32.9644 58.5573 32.1785 57.8556 31.5775 56.4321C26.3396 44.0539 21.0486 31.6975 15.763 19.3394C15.3325 18.3307 14.8159 17.3586 14.3084 16.3024C13.1157 16.6916 12.1612 17.0022 11.0509 17.3622C11.4998 18.4148 11.8241 19.2261 12.1868 20.0192C17.9487 32.6112 23.7161 45.2014 29.478 57.7935C31.4218 62.042 31.42 62.0877 36.1284 61.4883C39.0451 61.1192 41.9416 60.5948 44.8473 60.1398Z" fill="#C2DF93"/>
<path d="M193.454 33.2252C199.09 34.7437 204.036 36.5783 207.743 40.6661C210.841 44.0831 210.636 48.074 207.244 51.4308C202.869 55.7615 197.271 57.8995 191.529 59.6592C175.665 64.5199 159.345 65.7168 142.862 65.4354C137.946 65.3513 133.036 65.0644 128.122 64.8707C128.119 64.6715 128.115 64.4705 128.113 64.2714C128.916 64.2714 129.718 64.2823 130.521 64.2695C139.333 64.127 148.171 64.3536 156.952 63.7433C169.39 62.8789 181.696 60.8853 193.2 55.7615C196.322 54.3709 199.357 52.4632 201.913 50.2083C206.173 46.4514 205.9 41.5432 201.417 38.0329C199.128 36.2385 196.415 34.9831 193.454 33.2252Z" fill="#E3572D"/>
<path d="M85.9214 24.5344C79.6704 18.1132 73.4193 11.6939 67.0547 5.15755C67.8095 4.09405 68.4819 3.1475 69.3997 1.85376C75.2001 9.4883 80.7788 16.8305 86.3575 24.1726C86.2127 24.2932 86.068 24.4138 85.9214 24.5344Z" fill="#E3572D"/>
<path d="M66.0914 18.3052C64.9226 18.8314 64.2923 19.3614 63.7537 19.2828C63.3122 19.2188 62.9787 18.4276 62.5977 17.9598C63.1235 17.5505 63.6145 16.8981 64.1879 16.8141C64.5836 16.7556 65.0948 17.4865 66.0914 18.3052Z" fill="#E3572D"/>
<path d="M62.6895 22.645C62.6895 21.8958 62.6895 21.2909 62.6895 20.454C63.4754 20.3974 64.2156 20.3425 64.9905 20.2877C65.8113 22.5719 64.9887 23.1767 62.6895 22.645Z" fill="#E3572D"/>
<path d="M66.4102 19.5003C66.4102 18.3437 66.4102 17.7205 66.4102 16.911C67.1467 16.8416 67.8245 16.7776 68.79 16.6863C68.79 17.5451 69.0612 18.4697 68.7204 18.8425C68.3173 19.2866 67.3867 19.2555 66.4102 19.5003Z" fill="#E3572D"/>
<path d="M68.6981 22.7198C67.9579 22.7198 67.2837 22.7198 66.6242 22.7198C66.2211 20.3205 66.2211 20.3205 68.6981 20.4338C68.6981 21.1483 68.6981 21.8737 68.6981 22.7198Z" fill="#E3572D"/>
<path d="M49.0793 56V27.7236H54.4204V51.0124H66.595V56H49.0793ZM70.7356 31.8473V27.1345H76.0767V31.8473H70.7356ZM70.7356 56V34.7927H76.0767V56H70.7356ZM88.1065 56L80.409 34.7927H85.7501L90.777 49.4807L95.8039 34.7927H101.145L93.4476 56H88.1065ZM114.193 56.5891C112.02 56.5891 110.102 56.1244 108.44 55.1949C106.79 54.2524 105.494 52.9629 104.552 51.3265C103.622 49.6771 103.158 47.792 103.158 45.6713C103.158 43.3542 103.616 41.3382 104.532 39.6233C105.448 37.9084 106.712 36.5796 108.322 35.6371C109.932 34.6815 111.784 34.2036 113.879 34.2036C116.104 34.2036 117.996 34.7273 119.554 35.7745C121.112 36.8218 122.264 38.2945 123.01 40.1927C123.756 42.0909 124.018 44.3229 123.795 46.8887H118.513V44.9251C118.513 42.7651 118.166 41.2138 117.472 40.2713C116.792 39.3156 115.672 38.8378 114.115 38.8378C112.295 38.8378 110.953 39.3942 110.089 40.5069C109.238 41.6065 108.813 43.2364 108.813 45.3964C108.813 47.3731 109.238 48.9047 110.089 49.9913C110.953 51.0647 112.216 51.6015 113.879 51.6015C114.926 51.6015 115.823 51.3724 116.569 50.9142C117.315 50.456 117.885 49.7949 118.278 48.9309L123.619 50.4625C122.82 52.4 121.557 53.9055 119.829 54.9789C118.114 56.0524 116.235 56.5891 114.193 56.5891ZM107.163 46.8887V42.9222H121.223V46.8887H107.163ZM136.925 56.5891C134.254 56.5891 132.094 55.9869 130.445 54.7825C128.808 53.5651 127.814 51.8502 127.46 49.6378L132.919 48.8131C133.142 49.808 133.632 50.5869 134.392 51.1498C135.164 51.7127 136.139 51.9942 137.318 51.9942C138.286 51.9942 139.032 51.8109 139.556 51.4444C140.08 51.0647 140.342 50.5411 140.342 49.8735C140.342 49.4545 140.237 49.1207 140.027 48.872C139.818 48.6102 139.347 48.3549 138.614 48.1062C137.894 47.8575 136.768 47.5302 135.236 47.1244C133.508 46.6793 132.127 46.1818 131.093 45.632C130.059 45.0822 129.312 44.4276 128.854 43.6684C128.396 42.896 128.167 41.9665 128.167 40.88C128.167 39.5185 128.514 38.3404 129.208 37.3455C129.902 36.3375 130.877 35.5651 132.134 35.0284C133.403 34.4785 134.896 34.2036 136.611 34.2036C138.273 34.2036 139.746 34.4589 141.029 34.9695C142.312 35.48 143.346 36.2065 144.131 37.1491C144.93 38.0916 145.421 39.2044 145.604 40.4873L140.145 41.4691C140.054 40.6836 139.713 40.0618 139.124 39.6036C138.535 39.1455 137.736 38.8771 136.728 38.7985C135.747 38.7331 134.955 38.864 134.352 39.1913C133.763 39.5185 133.469 39.9898 133.469 40.6051C133.469 40.9716 133.593 41.2793 133.842 41.528C134.104 41.7767 134.634 42.032 135.432 42.2938C136.244 42.5556 137.475 42.896 139.124 43.3149C140.734 43.7338 142.024 44.2247 142.992 44.7876C143.974 45.3375 144.688 46.0051 145.133 46.7905C145.578 47.5629 145.8 48.4989 145.8 49.5985C145.8 51.7716 145.015 53.48 143.444 54.7236C141.873 55.9673 139.7 56.5891 136.925 56.5891ZM163.249 56C161.783 56.2749 160.343 56.3927 158.929 56.3535C157.528 56.3273 156.272 56.0851 155.159 55.6269C154.059 55.1556 153.221 54.4029 152.645 53.3687C152.122 52.4 151.847 51.4182 151.821 50.4233C151.794 49.4153 151.781 48.2764 151.781 47.0065V28.9018H157.122V46.6924C157.122 47.5171 157.129 48.2633 157.142 48.9309C157.168 49.5855 157.306 50.1091 157.554 50.5018C158.026 51.248 158.778 51.6538 159.813 51.7193C160.847 51.7847 161.992 51.7324 163.249 51.5622V56ZM148.168 38.9164V34.7927H163.249V38.9164H148.168ZM174.275 56.5891C172.756 56.5891 171.467 56.3011 170.407 55.7251C169.359 55.136 168.561 54.3571 168.011 53.3884C167.474 52.4065 167.206 51.3265 167.206 50.1484C167.206 49.1665 167.356 48.2698 167.657 47.4582C167.959 46.6465 168.443 45.9331 169.111 45.3178C169.791 44.6895 170.701 44.1658 171.84 43.7469C172.625 43.4589 173.561 43.2036 174.648 42.9811C175.735 42.7585 176.965 42.5491 178.34 42.3527C179.714 42.1433 181.226 41.9142 182.876 41.6655L180.951 42.7258C180.951 41.4691 180.65 40.5462 180.048 39.9571C179.446 39.368 178.438 39.0735 177.024 39.0735C176.239 39.0735 175.42 39.2633 174.569 39.6429C173.719 40.0225 173.123 40.6967 172.783 41.6655L167.952 40.1338C168.489 38.3796 169.497 36.9527 170.976 35.8531C172.455 34.7535 174.471 34.2036 177.024 34.2036C178.896 34.2036 180.559 34.4916 182.012 35.0676C183.465 35.6436 184.564 36.6385 185.311 38.0524C185.729 38.8378 185.978 39.6233 186.057 40.4087C186.135 41.1942 186.175 42.0713 186.175 43.04V56H181.501V51.6407L182.169 52.544C181.135 53.9709 180.015 55.0051 178.811 55.6465C177.62 56.2749 176.108 56.5891 174.275 56.5891ZM175.414 52.3869C176.396 52.3869 177.22 52.2167 177.888 51.8764C178.569 51.5229 179.105 51.1236 179.498 50.6785C179.904 50.2335 180.179 49.8604 180.323 49.5593C180.598 48.9833 180.755 48.3156 180.794 47.5564C180.847 46.784 180.873 46.1425 180.873 45.632L182.444 46.0247C180.86 46.2865 179.577 46.5091 178.595 46.6924C177.613 46.8625 176.821 47.0196 176.219 47.1636C175.617 47.3076 175.087 47.4647 174.628 47.6349C174.105 47.8444 173.679 48.0735 173.352 48.3222C173.038 48.5578 172.802 48.8196 172.645 49.1076C172.501 49.3956 172.429 49.7164 172.429 50.0698C172.429 50.5542 172.547 50.9731 172.783 51.3265C173.031 51.6669 173.378 51.9287 173.823 52.112C174.268 52.2953 174.799 52.3869 175.414 52.3869Z" fill="white"/>
</g>
<defs>
<clipPath id="clip0_2223_5519">
<rect width="210" height="72" fill="white"/>
</clipPath>
</defs>
</svg>
