<svg width="162" height="48" viewBox="0 0 162 48" fill="none" xmlns="http://www.w3.org/2000/svg">
<g clip-path="url(#clip0_2171_1984)">
<path d="M63.7375 27.5861C63.4311 28.1404 62.9612 28.5877 62.3267 28.9279C61.6922 29.2681 60.9052 29.4388 59.9656 29.4388H58.2268V33.5875H55.4229V22.0293H59.9656C60.8836 22.0293 61.6599 22.1879 62.2944 22.5064C62.9289 22.8249 63.4041 23.264 63.7213 23.8237C64.0386 24.3835 64.1965 25.0259 64.1965 25.7497C64.1965 26.4192 64.044 27.0318 63.7375 27.5861ZM60.9498 26.8204C61.2117 26.5683 61.3426 26.2105 61.3426 25.7497C61.3426 25.2888 61.2117 24.9324 60.9498 24.6789C60.6879 24.4269 60.2882 24.2995 59.7523 24.2995H58.2268V27.1971H59.7523C60.2882 27.1985 60.6879 27.0724 60.9498 26.8204Z" fill="white"/>
<path d="M73.9382 22.0293V24.2845H70.8885V33.5861H68.0846V24.2845H65.0349V22.0293H73.9382Z" fill="white"/>
<path d="M87.1384 27.5861C86.8319 28.1404 86.3621 28.5877 85.7276 28.9279C85.0931 29.2681 84.3061 29.4388 83.3665 29.4388H81.6277V33.5875H78.8237V22.0293H83.3665C84.2845 22.0293 85.0607 22.1879 85.6952 22.5064C86.3297 22.8249 86.8049 23.264 87.1222 23.8237C87.4394 24.3835 87.5974 25.0259 87.5974 25.7497C87.5974 26.4192 87.4448 27.0318 87.1384 27.5861ZM84.3506 26.8204C84.6125 26.5683 84.7435 26.2105 84.7435 25.7497C84.7435 25.2888 84.6125 24.9324 84.3506 24.6789C84.0887 24.4269 83.6891 24.2995 83.1532 24.2995H81.6277V27.1971H83.1532C83.6891 27.1985 84.0887 27.0724 84.3506 26.8204Z" fill="white"/>
<path d="M94.928 33.5875L92.5331 29.2247H91.8608V33.5875H89.0569V22.0293H93.763C94.6702 22.0293 95.4437 22.1879 96.0836 22.5064C96.7235 22.8249 97.2014 23.2613 97.5187 23.8156C97.8359 24.3699 97.9939 24.988 97.9939 25.6683C97.9939 26.4368 97.7779 27.1226 97.3459 27.7257C96.9139 28.3302 96.2767 28.7571 95.4356 29.0106L98.0924 33.5875H94.928ZM91.8622 27.2324H93.601C94.1153 27.2324 94.5001 27.1063 94.7566 26.8542C95.0131 26.6021 95.1413 26.2443 95.1413 25.7835C95.1413 25.3444 95.0131 24.9988 94.7566 24.7467C94.5001 24.4946 94.114 24.3672 93.601 24.3672H91.8622V27.2324Z" fill="white"/>
<path d="M102.218 32.945C101.316 32.4408 100.599 31.7347 100.07 30.8293C99.5395 29.924 99.2749 28.9061 99.2749 27.7758C99.2749 26.6454 99.5395 25.6303 100.07 24.7304C100.601 23.8304 101.316 23.1284 102.218 22.6229C103.12 22.1187 104.112 21.8652 105.195 21.8652C106.277 21.8652 107.27 22.1187 108.171 22.6229C109.073 23.1284 109.783 23.8304 110.303 24.7304C110.821 25.6303 111.082 26.6454 111.082 27.7758C111.082 28.9061 110.82 29.924 110.295 30.8293C109.77 31.7347 109.06 32.4408 108.163 32.945C107.267 33.4505 106.277 33.7026 105.195 33.7026C104.112 33.7026 103.12 33.4492 102.218 32.945ZM107.399 30.2113C107.951 29.5973 108.227 28.7841 108.227 27.7744C108.227 26.7539 107.95 25.9393 107.399 25.3294C106.847 24.7209 106.111 24.4159 105.193 24.4159C104.263 24.4159 103.523 24.7182 102.971 25.3213C102.419 25.9244 102.144 26.743 102.144 27.7744C102.144 28.795 102.419 29.6095 102.971 30.2194C103.523 30.8293 104.265 31.1329 105.193 31.1329C106.113 31.1343 106.847 30.8266 107.399 30.2113Z" fill="white"/>
<path d="M120.953 27.5861C120.647 28.1404 120.177 28.5877 119.543 28.9279C118.908 29.2681 118.121 29.4388 117.181 29.4388H115.443V33.5875H112.639V22.0293H117.181C118.099 22.0293 118.876 22.1879 119.51 22.5064C120.145 22.8249 120.62 23.264 120.937 23.8237C121.254 24.3835 121.412 25.0259 121.412 25.7497C121.412 26.4192 121.26 27.0318 120.953 27.5861ZM118.166 26.8204C118.427 26.5683 118.558 26.2105 118.558 25.7497C118.558 25.2888 118.427 24.9324 118.166 24.6789C117.904 24.4269 117.504 24.2995 116.968 24.2995H115.443V27.1971H116.968C117.504 27.1985 117.904 27.0724 118.166 26.8204Z" fill="white"/>
<path d="M125.677 24.284V26.6219H129.433V28.7945H125.677V31.3303H129.924V33.5855H122.873V22.0273H129.924V24.2826H125.677V24.284Z" fill="white"/>
<path d="M137.615 33.5875L135.22 29.2247H134.548V33.5875H131.744V22.0293H136.45C137.357 22.0293 138.131 22.1879 138.77 22.5064C139.41 22.8249 139.888 23.2613 140.205 23.8156C140.523 24.3699 140.681 24.988 140.681 25.6683C140.681 26.4368 140.465 27.1226 140.033 27.7257C139.601 28.3302 138.963 28.7571 138.122 29.0106L140.779 33.5875H137.615ZM134.548 27.2324H136.286C136.801 27.2324 137.186 27.1063 137.442 26.8542C137.699 26.6021 137.827 26.2443 137.827 25.7835C137.827 25.3444 137.699 24.9988 137.442 24.7467C137.186 24.4946 136.799 24.3672 136.286 24.3672H134.548V27.2324Z" fill="white"/>
<path d="M150.718 22.0293V24.2845H147.668V33.5861H144.864V24.2845H141.815V22.0293H150.718Z" fill="white"/>
<path d="M162 22.0293L158.015 29.7668V33.5861H155.211V29.7668L151.226 22.0293H154.408L156.638 26.8691L158.852 22.0293H162Z" fill="white"/>
<path d="M59.4877 39.3201C59.3162 39.5614 59.0773 39.7579 58.7695 39.9097C58.463 40.0615 58.0891 40.1374 57.649 40.1374H56.681L56.2976 42.3113H55.4229L56.3679 36.9551H58.2106C58.7479 36.9551 59.1543 37.0743 59.431 37.3129C59.7078 37.5514 59.8454 37.8645 59.8454 38.2494C59.8454 38.3158 59.8347 38.4161 59.8144 38.5503C59.7685 38.8214 59.6591 39.0789 59.4877 39.3201ZM58.5589 39.2117C58.7506 39.0531 58.8694 38.8322 58.9153 38.5489C58.9315 38.4717 58.9382 38.3971 58.9382 38.3253C58.9382 38.1098 58.8681 37.9417 58.7263 37.8211C58.5859 37.7005 58.3726 37.6395 58.0851 37.6395H57.1185L56.8039 39.4502H57.7719C58.1053 39.4502 58.3672 39.3716 58.5589 39.2117Z" fill="#C2DF93"/>
<path d="M63.832 38.4424C64.1466 38.7405 64.3045 39.1417 64.3045 39.6445C64.3045 39.7625 64.291 39.9048 64.2654 40.0688C64.2451 40.1813 64.2087 40.3208 64.1587 40.4848H60.9268C60.9214 40.5214 60.9187 40.5743 60.9187 40.6461C60.9187 40.9497 61.0119 41.191 61.1982 41.3712C61.3845 41.5515 61.6288 41.6409 61.9312 41.6409C62.4078 41.6409 62.7736 41.443 63.0288 41.0473H63.9724C63.778 41.4376 63.4918 41.7575 63.1125 42.0069C62.7331 42.2562 62.2957 42.3809 61.8003 42.3809C61.4479 42.3809 61.1374 42.3118 60.8715 42.1722C60.6055 42.0326 60.3976 41.8347 60.2491 41.5745C60.1006 41.3157 60.0264 41.0107 60.0264 40.661C60.0264 40.5119 60.0412 40.3534 60.0723 40.184C60.1492 39.7475 60.3045 39.3626 60.5407 39.0319C60.7756 38.7012 61.0686 38.4451 61.4196 38.2648C61.7706 38.0846 62.1526 37.9951 62.5671 37.9951C63.0963 37.9951 63.5175 38.1442 63.832 38.4424ZM63.4068 39.6513C63.4068 39.3694 63.3136 39.1458 63.126 38.9804C62.9397 38.8164 62.6967 38.7338 62.401 38.7338C62.0892 38.7338 61.807 38.8341 61.5559 39.0346C61.3048 39.2352 61.1334 39.5077 61.0416 39.8519H63.3906C63.4014 39.7597 63.4068 39.6933 63.4068 39.6513Z" fill="#C2DF93"/>
<path d="M65.2751 39.0345C65.5073 38.7052 65.7935 38.4504 66.131 38.2674C66.4685 38.0858 66.8222 37.9937 67.1907 37.9937C67.5242 37.9937 67.8023 38.0587 68.0277 38.1902C68.2532 38.3216 68.4219 38.4843 68.534 38.6794L68.642 38.0628H69.5249L68.7797 42.309H67.8968L68.0115 41.6774C67.8266 41.878 67.5957 42.0447 67.3163 42.1789C67.0368 42.3131 66.7344 42.3795 66.4064 42.3795C66.0891 42.3795 65.807 42.3076 65.5586 42.164C65.3102 42.0203 65.1158 41.8157 64.9754 41.5514C64.835 41.2871 64.7648 40.9821 64.7648 40.6379C64.7648 40.4834 64.7796 40.3275 64.8107 40.1676C64.8876 39.742 65.0429 39.3639 65.2751 39.0345ZM68.3031 39.8667C68.3031 39.5225 68.2019 39.2514 67.9994 39.0535C67.7969 38.8556 67.5458 38.7567 67.2434 38.7567C67.0179 38.7567 66.7979 38.8123 66.5832 38.922C66.3686 39.0332 66.1809 39.1945 66.023 39.4073C65.865 39.62 65.7597 39.8735 65.7084 40.1662C65.6882 40.2638 65.6774 40.3695 65.6774 40.482C65.6774 40.8317 65.7786 41.1082 65.9811 41.3101C66.1836 41.5134 66.4347 41.6151 66.7371 41.6151C66.9626 41.6151 67.1826 41.5581 67.3973 41.4457C67.6119 41.3332 67.7996 41.1678 67.9575 40.9483C68.1168 40.73 68.2208 40.4739 68.2721 40.1811C68.2937 40.0863 68.3031 39.9806 68.3031 39.8667Z" fill="#C2DF93"/>
<path d="M70.4794 39.0319C70.7116 38.7012 71.0018 38.4451 71.3474 38.2648C71.693 38.0846 72.067 37.9951 72.472 37.9951C72.9836 37.9951 73.3859 38.1171 73.6775 38.3611C73.9691 38.605 74.1352 38.9533 74.177 39.406H73.2334C73.1929 39.1946 73.097 39.0306 72.9499 38.9127C72.8014 38.7948 72.5989 38.7351 72.3437 38.7351C71.986 38.7351 71.6782 38.8625 71.423 39.1173C71.1665 39.3721 70.9978 39.7272 70.9168 40.1853C70.8911 40.3493 70.879 40.4835 70.879 40.5865C70.879 40.9253 70.9627 41.1869 71.1328 41.3685C71.3015 41.5515 71.5364 41.6423 71.8388 41.6423C72.3451 41.6423 72.719 41.4187 72.9593 40.9714H73.903C73.7032 41.4024 73.4129 41.7453 73.0322 42.0001C72.6502 42.2549 72.2101 42.3823 71.7079 42.3823C71.176 42.3823 70.7534 42.2291 70.4416 41.9228C70.1297 41.6179 69.9731 41.2018 69.9731 40.6787C69.9731 40.5201 69.988 40.3547 70.019 40.1853C70.0919 39.7462 70.2472 39.3626 70.4794 39.0319Z" fill="#C2DF93"/>
<path d="M78.3796 38.4424C78.6942 38.7405 78.8521 39.1417 78.8521 39.6445C78.8521 39.7625 78.8386 39.9048 78.813 40.0688C78.7927 40.1813 78.7563 40.3208 78.7063 40.4848H75.4744C75.469 40.5214 75.4663 40.5743 75.4663 40.6461C75.4663 40.9497 75.5595 41.191 75.7458 41.3712C75.9321 41.5515 76.1764 41.6409 76.4788 41.6409C76.9554 41.6409 77.3212 41.443 77.5764 41.0473H78.52C78.3256 41.4376 78.0394 41.7575 77.6601 42.0069C77.2807 42.2562 76.8433 42.3809 76.3479 42.3809C75.9955 42.3809 75.685 42.3118 75.4191 42.1722C75.1531 42.034 74.9452 41.8347 74.7967 41.5745C74.6482 41.3157 74.574 41.0107 74.574 40.661C74.574 40.5119 74.5888 40.3534 74.6199 40.184C74.6968 39.7475 74.8521 39.3626 75.0883 39.0319C75.3232 38.7012 75.6162 38.4451 75.9672 38.2648C76.3182 38.0846 76.7002 37.9951 77.1147 37.9951C77.6425 37.9951 78.0637 38.1442 78.3796 38.4424ZM77.953 39.6513C77.953 39.3694 77.8599 39.1458 77.6722 38.9804C77.4859 38.8164 77.2429 38.7338 76.9473 38.7338C76.6354 38.7338 76.3533 38.8341 76.1022 39.0346C75.8511 39.2352 75.6796 39.5077 75.5878 39.8519H77.9368C77.9476 39.7597 77.953 39.6933 77.953 39.6513Z" fill="#C2DF93"/>
<path d="M81.3144 37.2467C81.1862 37.3497 81.1025 37.5219 81.0606 37.7631L81.0066 38.064H81.7896L81.6668 38.781H80.8838L80.2614 42.3102H79.3799L80.0022 38.781H79.5027L79.6256 38.064H80.1251L80.1791 37.7631C80.2668 37.2752 80.4585 36.9187 80.7555 36.6951C81.0525 36.4715 81.4764 36.3604 82.0299 36.3604L81.9071 37.0922C81.6398 37.0936 81.4427 37.1451 81.3144 37.2467Z" fill="#C2DF93"/>
<path d="M86.3972 38.064L85.652 42.3102H84.7772L84.8622 41.8087C84.6935 41.9835 84.4896 42.1204 84.252 42.2207C84.0144 42.321 83.7701 42.3712 83.519 42.3712C83.0735 42.3712 82.7184 42.2505 82.4511 42.0093C82.1852 41.7681 82.0515 41.4265 82.0515 40.9847C82.0515 40.8668 82.0637 40.7258 82.0893 40.5605L82.5267 38.064H83.3948L82.9803 40.4304C82.9601 40.574 82.9493 40.677 82.9493 40.7394C82.9493 41.0226 83.0276 41.2381 83.1828 41.3872C83.3394 41.5363 83.5554 41.6108 83.8322 41.6108C84.1548 41.6108 84.4289 41.5146 84.653 41.3222C84.8784 41.1297 85.0269 40.8505 85.0985 40.4859L85.521 38.0653H86.3972V38.064Z" fill="#C2DF93"/>
<path d="M88.684 36.6074L87.6783 42.3106H86.8035L87.8092 36.6074H88.684Z" fill="#C2DF93"/>
<path d="M94.5418 41.2165H92.3075L91.7324 42.3103H90.8185L93.6737 36.9473H94.6876L95.6542 42.3103H94.7335L94.5418 41.2165ZM94.4257 40.5294L93.9883 38.0098L92.668 40.5294H94.4257Z" fill="#C2DF93"/>
<path d="M100.44 38.3528C100.703 38.5914 100.836 38.9342 100.836 39.3815C100.836 39.4953 100.822 39.6363 100.798 39.8057L100.352 42.3103H99.4855L99.9081 39.9372C99.9283 39.7935 99.9391 39.6905 99.9391 39.6282C99.9391 39.3463 99.8608 39.1294 99.7056 38.9803C99.549 38.8312 99.333 38.7567 99.0562 38.7567C98.7241 38.7567 98.4433 38.8583 98.2152 39.0603C97.987 39.2636 97.8426 39.555 97.7818 39.9358V39.9128L97.3593 42.309H96.4845L97.2297 38.0628H98.1045L98.0194 38.5561C98.1936 38.3813 98.4001 38.2444 98.6377 38.1441C98.8753 38.0438 99.1224 37.9937 99.3789 37.9937C99.8217 37.995 100.177 38.1143 100.44 38.3528Z" fill="#C2DF93"/>
<path d="M102.014 39.0342C102.246 38.7049 102.532 38.4501 102.87 38.2671C103.207 38.0855 103.564 37.9933 103.938 37.9933C104.215 37.9933 104.475 38.0543 104.721 38.1749C104.967 38.2956 105.153 38.4555 105.281 38.6561L105.642 36.6055H106.524L105.519 42.3087H104.636L104.751 41.6689C104.566 41.8804 104.337 42.0511 104.063 42.1813C103.789 42.3127 103.488 42.3778 103.162 42.3778C102.839 42.3778 102.553 42.3059 102.302 42.1623C102.051 42.0186 101.855 41.814 101.714 41.5497C101.574 41.2854 101.504 40.9804 101.504 40.6362C101.504 40.4817 101.519 40.3258 101.55 40.1659C101.627 39.7417 101.781 39.3635 102.014 39.0342ZM105.042 39.8664C105.042 39.5221 104.941 39.2511 104.738 39.0532C104.536 38.8553 104.285 38.7564 103.982 38.7564C103.757 38.7564 103.537 38.8119 103.322 38.9217C103.108 39.0328 102.92 39.1941 102.762 39.4069C102.604 39.6197 102.499 39.8731 102.447 40.1659C102.427 40.2635 102.416 40.3692 102.416 40.4817C102.416 40.8314 102.518 41.1078 102.72 41.3098C102.923 41.5131 103.174 41.6147 103.476 41.6147C103.702 41.6147 103.922 41.5578 104.136 41.4453C104.351 41.3328 104.539 41.1675 104.697 40.9479C104.856 40.7297 104.96 40.4736 105.011 40.1808C105.031 40.0859 105.042 39.9802 105.042 39.8664Z" fill="#C2DF93"/>
<path d="M110.024 42.2058C109.762 42.1 109.555 41.9469 109.401 41.7436C109.247 41.5403 109.17 41.3004 109.17 41.0226C109.17 40.9873 109.176 40.9223 109.185 40.8301H110.053C110.033 41.0659 110.102 41.2624 110.26 41.4197C110.419 41.5769 110.646 41.6541 110.943 41.6541C111.26 41.6541 111.509 41.5891 111.687 41.4576C111.865 41.3262 111.955 41.1378 111.955 40.8911C111.955 40.742 111.911 40.6146 111.822 40.5102C111.733 40.4045 111.619 40.3164 111.484 40.2446C111.349 40.1728 111.16 40.0874 110.92 39.9898C110.603 39.857 110.349 39.735 110.16 39.6279C109.971 39.5195 109.808 39.3718 109.673 39.1807C109.538 38.9909 109.469 38.7524 109.469 38.4637C109.469 38.1452 109.551 37.866 109.714 37.6275C109.878 37.3889 110.105 37.2046 110.394 37.0772C110.682 36.9485 111.009 36.8848 111.372 36.8848C111.735 36.8848 112.049 36.9458 112.313 37.0664C112.576 37.187 112.776 37.3564 112.911 37.5746C113.046 37.7928 113.107 38.049 113.092 38.3417H112.171C112.192 38.1317 112.128 37.9555 111.98 37.8145C111.831 37.6736 111.617 37.6031 111.334 37.6031C111.037 37.6031 110.801 37.6709 110.624 37.8077C110.448 37.9433 110.36 38.1276 110.36 38.358C110.36 38.5017 110.404 38.6264 110.495 38.7321C110.584 38.8378 110.699 38.9272 110.836 39.0018C110.974 39.0763 111.162 39.1644 111.397 39.2674C111.714 39.4111 111.969 39.5398 112.161 39.6523C112.352 39.7662 112.517 39.918 112.656 40.1118C112.794 40.3042 112.864 40.5414 112.864 40.8247C112.864 41.1229 112.782 41.3885 112.618 41.6216C112.454 41.8561 112.224 42.0377 111.927 42.1692C111.63 42.3006 111.29 42.3657 110.907 42.3657C110.578 42.3643 110.286 42.3115 110.024 42.2058Z" fill="#C2DF93"/>
<path d="M114.12 39.0345C114.352 38.7052 114.638 38.4504 114.975 38.2674C115.313 38.0858 115.667 37.9937 116.035 37.9937C116.369 37.9937 116.647 38.0587 116.872 38.1902C117.098 38.3216 117.266 38.4843 117.378 38.6794L117.486 38.0628H118.369L117.624 42.309H116.741L116.856 41.6774C116.671 41.878 116.44 42.0447 116.161 42.1789C115.881 42.3131 115.579 42.3795 115.251 42.3795C114.934 42.3795 114.651 42.3076 114.403 42.164C114.155 42.0203 113.96 41.8157 113.82 41.5514C113.679 41.2871 113.609 40.9821 113.609 40.6379C113.609 40.4834 113.624 40.3275 113.655 40.1676C113.732 39.742 113.886 39.3639 114.12 39.0345ZM117.148 39.8667C117.148 39.5225 117.046 39.2514 116.844 39.0535C116.641 38.8556 116.39 38.7567 116.088 38.7567C115.862 38.7567 115.642 38.8123 115.428 38.922C115.213 39.0332 115.025 39.1945 114.867 39.4073C114.71 39.62 114.604 39.8735 114.553 40.1662C114.533 40.2638 114.522 40.3695 114.522 40.482C114.522 40.8317 114.623 41.1082 114.826 41.3101C115.028 41.5134 115.279 41.6151 115.582 41.6151C115.807 41.6151 116.027 41.5581 116.242 41.4457C116.456 41.3332 116.644 41.1678 116.802 40.9483C116.961 40.73 117.065 40.4739 117.117 40.1811C117.137 40.0863 117.148 39.9806 117.148 39.8667Z" fill="#C2DF93"/>
<path d="M120.817 37.2467C120.689 37.3497 120.605 37.5219 120.563 37.7631L120.509 38.064H121.292L121.169 38.781H120.386L119.764 42.3102H118.881L119.503 38.781H119.004L119.127 38.064H119.626L119.68 37.7631C119.768 37.2752 119.96 36.9187 120.257 36.6951C120.554 36.4715 120.977 36.3604 121.531 36.3604L121.408 37.0922C121.141 37.0936 120.944 37.1451 120.817 37.2467Z" fill="#C2DF93"/>
<path d="M125.165 38.4424C125.48 38.7405 125.638 39.1417 125.638 39.6445C125.638 39.7625 125.624 39.9048 125.599 40.0688C125.578 40.1813 125.542 40.3208 125.492 40.4848H122.26C122.255 40.5214 122.252 40.5743 122.252 40.6461C122.252 40.9497 122.345 41.191 122.531 41.3712C122.718 41.5515 122.962 41.6409 123.264 41.6409C123.741 41.6409 124.107 41.443 124.362 41.0473H125.306C125.111 41.4376 124.825 41.7575 124.446 42.0069C124.066 42.2562 123.629 42.3809 123.134 42.3809C122.781 42.3809 122.471 42.3118 122.205 42.1722C121.939 42.034 121.731 41.8347 121.582 41.5745C121.434 41.3157 121.36 41.0107 121.36 40.661C121.36 40.5119 121.374 40.3534 121.406 40.184C121.482 39.7475 121.638 39.3626 121.874 39.0319C122.109 38.7012 122.402 38.4451 122.753 38.2648C123.104 38.0846 123.486 37.9951 123.9 37.9951C124.43 37.9951 124.851 38.1442 125.165 38.4424ZM124.739 39.6513C124.739 39.3694 124.646 39.1458 124.458 38.9804C124.272 38.8164 124.029 38.7338 123.733 38.7338C123.421 38.7338 123.139 38.8341 122.888 39.0346C122.637 39.2352 122.465 39.5077 122.373 39.8519H124.722C124.735 39.7597 124.739 39.6933 124.739 39.6513Z" fill="#C2DF93"/>
<path d="M28.1082 0C19.8327 0 13.0098 6.23583 12.0432 14.281H44.1732C43.2066 6.23583 36.3824 0 28.1082 0Z" fill="#E3572D"/>
<path d="M44.2745 15.5376H11.942C11.9325 15.7734 11.9258 16.0092 11.9258 16.2464C11.9258 16.6056 11.9393 16.9634 11.9622 17.3171H44.2569C44.2799 16.9634 44.2934 16.6069 44.2934 16.2464C44.2907 16.0092 44.2853 15.7734 44.2745 15.5376Z" fill="#E3572D"/>
<path d="M28.1083 32.494C34.2845 32.494 39.6521 29.0203 42.3791 23.9121H13.8374C16.5644 29.0203 21.932 32.494 28.1083 32.494Z" fill="#E3572D"/>
<path d="M6.7392 18.7549C6.44355 18.7549 6.20325 18.9961 6.20325 19.2929C6.20325 19.5898 6.44355 19.831 6.7392 19.831H15.6762V18.7549H6.7392Z" fill="white"/>
<path d="M7.68823 21.9101C7.68823 22.2069 7.92853 22.4482 8.22418 22.4482H15.6762V21.3721H8.22418C7.92853 21.3721 7.68823 21.6133 7.68823 21.9101Z" fill="white"/>
<path d="M11.0038 23.9199H6.36516C6.10731 23.9199 5.89941 24.13 5.89941 24.3875C5.89941 24.645 6.10866 24.8551 6.36516 24.8551H11.0038C11.2616 24.8551 11.4695 24.645 11.4695 24.3875C11.4695 24.13 11.2603 23.9199 11.0038 23.9199Z" fill="white"/>
<path d="M50.1093 19.3364C50.1093 19.0396 49.869 18.7983 49.5734 18.7983H40.635V19.8745H49.572C49.869 19.8745 50.1093 19.6332 50.1093 19.3364Z" fill="white"/>
<path d="M48.623 21.9531C48.623 21.6563 48.3827 21.415 48.087 21.415H40.635V22.4912H48.087C48.3827 22.4912 48.623 22.2499 48.623 21.9531Z" fill="white"/>
<path d="M49.8513 23.917H45.2127C44.9548 23.917 44.7469 24.1271 44.7469 24.3846C44.7469 24.6434 44.9562 24.8522 45.2127 24.8522H49.8513C50.1091 24.8522 50.317 24.6421 50.317 24.3846C50.317 24.1271 50.1091 23.917 49.8513 23.917Z" fill="white"/>
<path d="M15.3468 16.0469L27.9261 7.30371L40.8699 16.0387V26.5371V47.1067H15.3468V16.0469ZM37.2951 35.947V18.2574L27.9612 12.0121L18.9216 18.2479V35.9023L28.0638 30.1463L37.2951 35.947Z" fill="#16243E"/>
<path d="M40.7618 28.4238V46.4713H47.1689V32.483L40.7618 28.4238Z" fill="#C2DF93"/>
<path d="M9.04639 46.4713H15.4548V28.4238L9.04639 32.483V46.4713Z" fill="#C2DF93"/>
<path d="M17.6997 17.7667V38.5126L27.9665 31.2061L38.5761 38.5099V17.764L27.98 10.6743L17.6997 17.7667Z" fill="#C2DF93"/>
<path d="M48.7039 46.1163V31.2999H48.6851L48.7039 31.2633L41.985 26.9615L40.419 28.2911H39.9317V16.6787L27.9342 8.58203L16.285 16.6787V28.2911H15.7383L14.1723 26.9615L7.45335 31.2633L7.47225 31.2999H7.45335V46.1163H0V48.0001H56.2167V46.1163H48.7039ZM15.1132 46.1163H9.32985V32.6159L15.1119 28.9525V46.1163H15.1132ZM19.3307 46.1163H17.9834V40.4266L19.3307 39.4982V46.1163ZM34.7261 46.1163H30.1644V41.5854H26.0537V46.1163H21.492V37.9545L27.9342 33.3356L34.7261 38.0196V46.1163ZM38.2333 46.1163H36.8861V39.5131L38.2333 40.4388V46.1163ZM38.2333 37.8732L28.0368 30.1479L17.9834 37.8637V17.8917L27.9531 11.0135L38.2333 17.8917V37.8732ZM46.8274 46.1163H41.0454V28.9525L46.8274 32.6159V46.1163Z" fill="white"/>
<path d="M27.8962 36.2041H26.7339V37.371H27.8962V36.2041Z" fill="white"/>
<path d="M29.4825 36.2041H28.3202V37.371H29.4825V36.2041Z" fill="white"/>
<path d="M27.8962 37.8252H26.7339V38.9921H27.8962V37.8252Z" fill="white"/>
<path d="M29.4825 37.8252H28.3202V38.9921H29.4825V37.8252Z" fill="white"/>
<path d="M43.9572 34.0078H43.0405V34.9281H43.9572V34.0078Z" fill="#16243E"/>
<path d="M45.2074 34.0078H44.2908V34.9281H45.2074V34.0078Z" fill="#16243E"/>
<path d="M43.9572 35.2861H43.0405V36.2064H43.9572V35.2861Z" fill="#16243E"/>
<path d="M45.2074 35.2861H44.2908V36.2064H45.2074V35.2861Z" fill="#16243E"/>
<path d="M43.9572 37.916H43.0405V38.8363H43.9572V37.916Z" fill="#16243E"/>
<path d="M45.2074 37.916H44.2908V38.8363H45.2074V37.916Z" fill="#16243E"/>
<path d="M43.9572 39.1943H43.0405V40.1146H43.9572V39.1943Z" fill="#16243E"/>
<path d="M45.2074 39.1943H44.2908V40.1146H45.2074V39.1943Z" fill="#16243E"/>
<path d="M13.1759 34.0078H12.2593V34.9281H13.1759V34.0078Z" fill="#16243E"/>
<path d="M11.9259 34.0078H11.0093V34.9281H11.9259V34.0078Z" fill="#16243E"/>
<path d="M13.1759 35.2861H12.2593V36.2064H13.1759V35.2861Z" fill="#16243E"/>
<path d="M11.9259 35.2861H11.0093V36.2064H11.9259V35.2861Z" fill="#16243E"/>
<path d="M13.1759 37.916H12.2593V38.8363H13.1759V37.916Z" fill="#16243E"/>
<path d="M11.9259 37.916H11.0093V38.8363H11.9259V37.916Z" fill="#16243E"/>
<path d="M13.1759 39.1943H12.2593V40.1146H13.1759V39.1943Z" fill="#16243E"/>
<path d="M11.9259 39.1943H11.0093V40.1146H11.9259V39.1943Z" fill="#16243E"/>
<path d="M31.5575 31.9651V15.7026H30.1278V30.9649L28.7481 29.9999V14.7146L28.115 13.6602L27.4818 14.7146V29.8711L26.0157 30.9283V15.7026H24.5861V31.961L17.126 37.3444L16.2363 39.1361C16.2363 39.1361 27.1767 31.3782 28.0367 30.7548L39.9801 39.1361L39.2417 37.3444L31.5575 31.9651Z" fill="#16243E"/>
<path d="M36.3312 19.3405L34.186 17.9648V20.193L36.3312 21.4941V19.3405Z" fill="#16243E"/>
<path d="M36.3312 25.0954L34.186 23.7197V25.9479L36.3312 27.249V25.0954Z" fill="#16243E"/>
<path d="M36.3312 30.8512L34.186 29.4756V31.7037L36.3312 33.0048V30.8512Z" fill="#16243E"/>
<path d="M22.0306 17.9648L19.8855 19.3405V21.4941L22.0306 20.193V17.9648Z" fill="#16243E"/>
<path d="M22.0306 23.7197L19.8855 25.0954V27.249L22.0306 25.9479V23.7197Z" fill="#16243E"/>
<path d="M22.0306 29.4756L19.8855 30.8512V33.0048L22.0306 31.7037V29.4756Z" fill="#16243E"/>
</g>
<defs>
<clipPath id="clip0_2171_1984">
<rect width="162" height="48" fill="white"/>
</clipPath>
</defs>
</svg>
