<svg width="181" height="48" viewBox="0 0 181 48" fill="none" xmlns="http://www.w3.org/2000/svg">
<g clip-path="url(#clip0_2171_2425)">
<path d="M63.5177 43.8115H64.1553L65.3173 45.7648L66.4793 43.8115H67.1229L65.5914 46.2382V47.8799H65.0432V46.2382L63.5177 43.8115Z" fill="white"/>
<path d="M74.8755 44.3928C75.1436 44.7523 75.2807 45.2137 75.2807 45.7769C75.2807 46.3821 75.1258 46.8914 74.8219 47.2928C74.4584 47.7662 73.9459 47.9998 73.2785 47.9998C72.6587 47.9998 72.1641 47.7961 71.8125 47.3767C71.4967 46.9752 71.3358 46.4719 71.3358 45.8668C71.3358 45.3155 71.4729 44.8482 71.741 44.4527C72.0926 43.9494 72.6051 43.6978 73.2904 43.6978C74.0055 43.6978 74.5299 43.9314 74.8755 44.3928ZM74.3928 46.9872C74.6073 46.6397 74.7146 46.2383 74.7146 45.7889C74.7146 45.3095 74.5895 44.9261 74.3392 44.6325C74.0889 44.3389 73.7492 44.1951 73.3202 44.1951C72.903 44.1951 72.5574 44.3389 72.2952 44.6265C72.033 44.9141 71.896 45.3395 71.896 45.9027C71.896 46.3521 72.0092 46.7356 72.2356 47.0412C72.4621 47.3527 72.8315 47.5025 73.3381 47.5025C73.8267 47.5085 74.1783 47.3348 74.3928 46.9872Z" fill="white"/>
<path d="M80.477 43.8115V46.3281C80.477 46.6217 80.5307 46.8673 80.6439 47.065C80.8048 47.3586 81.0849 47.5084 81.4722 47.5084C81.937 47.5084 82.2528 47.3467 82.4197 47.0291C82.5091 46.8553 82.5567 46.6217 82.5567 46.3281V43.8115H83.1109V46.0944C83.1109 46.5977 83.0454 46.9812 82.9083 47.2508C82.664 47.7421 82.1992 47.9878 81.5139 47.9878C80.8286 47.9878 80.3698 47.7421 80.1255 47.2508C79.9884 46.9812 79.9229 46.5977 79.9229 46.0944V43.8115H80.477Z" fill="white"/>
<path d="M87.9734 43.8115H89.8446C90.1545 43.8115 90.4047 43.8595 90.6073 43.9493C90.9887 44.1231 91.1794 44.4407 91.1794 44.908C91.1794 45.1537 91.1317 45.3514 91.0304 45.5072C90.9291 45.663 90.7921 45.7888 90.6073 45.8787C90.7682 45.9446 90.8815 46.0285 90.9649 46.1363C91.0423 46.2442 91.09 46.4119 91.096 46.6516L91.1139 47.1969C91.1198 47.3527 91.1317 47.4665 91.1496 47.5444C91.1854 47.6762 91.239 47.7541 91.3284 47.796V47.8859H90.655C90.6371 47.85 90.6193 47.808 90.6133 47.7481C90.6014 47.6942 90.5954 47.5863 90.5835 47.4246L90.5477 46.7475C90.5358 46.4838 90.4345 46.3041 90.2498 46.2142C90.1425 46.1663 89.9816 46.1423 89.7552 46.1423H88.5038V47.8859H87.9556V43.8115H87.9734ZM89.785 45.675C90.0412 45.675 90.2438 45.621 90.3988 45.5192C90.5477 45.4173 90.6252 45.2316 90.6252 44.9619C90.6252 44.6743 90.518 44.4766 90.3094 44.3688C90.1962 44.3148 90.0472 44.2849 89.8625 44.2849H88.5217V45.675H89.785Z" fill="white"/>
<path d="M101.804 46.5675C101.816 46.8012 101.87 46.987 101.965 47.1308C102.15 47.4004 102.466 47.5382 102.925 47.5382C103.127 47.5382 103.318 47.5083 103.485 47.4483C103.813 47.3345 103.974 47.1308 103.974 46.8312C103.974 46.6095 103.902 46.4537 103.765 46.3578C103.628 46.268 103.407 46.1841 103.11 46.1182L102.561 45.9923C102.204 45.9085 101.948 45.8246 101.799 45.7227C101.542 45.5549 101.411 45.2973 101.411 44.9618C101.411 44.5963 101.536 44.2967 101.787 44.063C102.037 43.8293 102.394 43.7095 102.853 43.7095C103.276 43.7095 103.64 43.8113 103.938 44.021C104.236 44.2248 104.385 44.5543 104.385 45.0097H103.872C103.842 44.794 103.783 44.6262 103.693 44.5064C103.527 44.2967 103.241 44.1888 102.841 44.1888C102.52 44.1888 102.287 44.2547 102.144 44.3925C102.001 44.5303 101.93 44.6861 101.93 44.8719C101.93 45.0696 102.013 45.2194 102.18 45.3093C102.287 45.3692 102.531 45.4411 102.919 45.531L103.485 45.6628C103.759 45.7287 103.968 45.8126 104.117 45.9204C104.373 46.1122 104.504 46.3878 104.504 46.7473C104.504 47.1967 104.343 47.5202 104.015 47.712C103.688 47.9037 103.312 48.0056 102.877 48.0056C102.371 48.0056 101.977 47.8737 101.697 47.6161C101.411 47.3585 101.274 47.0109 101.28 46.5735H101.804V46.5675Z" fill="white"/>
<path d="M109.164 43.8115H109.712V47.3946H111.762V47.8799H109.164V43.8115Z" fill="white"/>
<path d="M119.58 44.3928C119.848 44.7523 119.986 45.2137 119.986 45.7769C119.986 46.3821 119.831 46.8914 119.527 47.2928C119.163 47.7662 118.651 47.9998 117.983 47.9998C117.364 47.9998 116.869 47.7961 116.517 47.3767C116.202 46.9752 116.041 46.4719 116.041 45.8668C116.041 45.3155 116.178 44.8482 116.446 44.4527C116.797 43.9494 117.31 43.6978 117.995 43.6978C118.71 43.6978 119.241 43.9314 119.58 44.3928ZM119.098 46.9872C119.312 46.6397 119.419 46.2383 119.419 45.7889C119.419 45.3095 119.294 44.9261 119.044 44.6325C118.794 44.3389 118.454 44.1951 118.025 44.1951C117.608 44.1951 117.262 44.3389 117 44.6265C116.738 44.9141 116.601 45.3395 116.601 45.9027C116.601 46.3521 116.714 46.7356 116.94 47.0412C117.167 47.3527 117.536 47.5025 118.043 47.5025C118.537 47.5085 118.883 47.3348 119.098 46.9872Z" fill="white"/>
<path d="M127.327 43.9255C127.732 44.1352 127.977 44.5127 128.066 45.04H127.524C127.458 44.7404 127.321 44.5247 127.112 44.3929C126.904 44.255 126.642 44.1891 126.326 44.1891C125.95 44.1891 125.635 44.3329 125.378 44.6146C125.122 44.8962 124.991 45.3156 124.991 45.8788C124.991 46.3641 125.098 46.7596 125.307 47.0592C125.515 47.3648 125.861 47.5146 126.338 47.5146C126.701 47.5146 127.005 47.4067 127.244 47.197C127.482 46.9813 127.607 46.6398 127.613 46.1604H126.344V45.7051H128.12V47.8801H127.768L127.637 47.3588C127.452 47.5625 127.285 47.7063 127.142 47.7842C126.904 47.922 126.594 47.9879 126.225 47.9879C125.748 47.9879 125.331 47.8321 124.985 47.5206C124.61 47.1311 124.419 46.5918 124.419 45.9088C124.419 45.2257 124.604 44.6865 124.967 44.285C125.319 43.9015 125.766 43.7098 126.32 43.7098C126.719 43.7038 127.047 43.7817 127.327 43.9255Z" fill="white"/>
<path d="M134.102 43.8115H134.722L136.188 47.8799H135.586L135.175 46.6636H133.572L133.137 47.8799H132.577L134.102 43.8115ZM135.002 46.2142L134.388 44.4167L133.733 46.2142H135.002Z" fill="white"/>
<path d="M140.64 43.8115H141.289L143.333 47.107V43.8115H143.851V47.8799H143.238L141.164 44.5845V47.8799H140.64V43.8115Z" fill="white"/>
<path d="M154.196 43.8115H154.751V45.4952H156.854V43.8115H157.408V47.8799H156.854V45.9745H154.751V47.8799H154.196V43.8115Z" fill="white"/>
<path d="M162.259 43.8115H165.209V44.3088H162.789V45.5431H165.024V46.0165H162.789V47.3946H165.244V47.8799H162.253V43.8115H162.259Z" fill="white"/>
<path d="M169.988 43.8115H171.859C172.169 43.8115 172.419 43.8595 172.622 43.9493C173.003 44.1231 173.194 44.4407 173.194 44.908C173.194 45.1537 173.146 45.3514 173.045 45.5072C172.943 45.663 172.806 45.7888 172.628 45.8787C172.783 45.9446 172.902 46.0285 172.985 46.1363C173.063 46.2442 173.11 46.4119 173.116 46.6516L173.134 47.1969C173.14 47.3527 173.152 47.4665 173.17 47.5444C173.206 47.6762 173.259 47.7541 173.349 47.796V47.8859H172.675C172.657 47.85 172.64 47.808 172.634 47.7481C172.622 47.6942 172.616 47.5863 172.604 47.4246L172.568 46.7475C172.556 46.4838 172.455 46.3041 172.276 46.2142C172.169 46.1663 172.008 46.1423 171.781 46.1423H170.536V47.8859H169.988V43.8115ZM171.805 45.675C172.062 45.675 172.264 45.621 172.413 45.5192C172.562 45.4173 172.64 45.2316 172.64 44.9619C172.64 44.6743 172.532 44.4766 172.324 44.3688C172.211 44.3148 172.062 44.2849 171.877 44.2849H170.536V45.675H171.805Z" fill="white"/>
<path d="M177.997 43.8115H180.947V44.3088H178.533V45.5431H180.768V46.0165H178.533V47.3946H180.988V47.8799H177.997V43.8115Z" fill="white"/>
<path d="M71.592 26.9687C72.0568 27.1724 72.4561 27.466 72.7779 27.8615C73.046 28.185 73.2605 28.5445 73.4155 28.934C73.5704 29.3295 73.6479 29.7729 73.6479 30.2762C73.6479 30.8813 73.493 31.4805 73.189 32.0677C72.8851 32.6549 72.3846 33.0683 71.6814 33.308C72.2654 33.5477 72.6825 33.8832 72.9268 34.3146C73.1712 34.752 73.2903 35.4171 73.2903 36.3099V37.1667C73.2903 37.7479 73.3142 38.1433 73.3619 38.3531C73.4334 38.6826 73.5943 38.9223 73.8505 39.0781V39.3956H70.9186C70.8352 39.114 70.7816 38.8863 70.7458 38.7126C70.6743 38.3531 70.6386 37.9876 70.6326 37.6101L70.6147 36.4237C70.6028 35.6088 70.4658 35.0696 70.1976 34.7939C69.9294 34.5243 69.4229 34.3865 68.684 34.3865H66.0918V39.3956H63.4996V26.6392H69.5719C70.4538 26.6571 71.1213 26.765 71.592 26.9687ZM66.1097 28.8561V32.2834H68.9641C69.5302 32.2834 69.9592 32.2115 70.2393 32.0737C70.7399 31.834 70.9902 31.3547 70.9902 30.6357C70.9902 29.8627 70.7458 29.3414 70.2632 29.0778C69.989 28.928 69.5838 28.8501 69.0356 28.8501H66.1097V28.8561Z" fill="#C2DF93"/>
<path d="M85.5839 28.8981H78.8621V31.6063H85.0297V33.8233H78.8621V37.1068H85.8938V39.4016H76.2699V26.6392H85.5839V28.8981Z" fill="#C2DF93"/>
<path d="M91.5906 26.6392H94.594L99.0871 39.4076H96.2089L95.3687 36.7832H90.6908L89.8327 39.4076H87.0558L91.5906 26.6392ZM91.4178 34.5842H94.6714L93.0685 29.5631L91.4178 34.5842Z" fill="#C2DF93"/>
<path d="M100.702 26.6392H103.354V37.1128H109.694V39.4076H100.702V26.6392Z" fill="#C2DF93"/>
<path d="M125.462 28.8981H118.74V31.6063H124.908V33.8233H118.74V37.1068H125.772V39.4016H116.148V26.6392H125.462V28.8981Z" fill="white"/>
<path d="M129.752 35.4649C129.836 36.0461 129.997 36.4835 130.235 36.7711C130.676 37.2984 131.427 37.562 132.493 37.562C133.131 37.562 133.65 37.4901 134.049 37.3523C134.806 37.0887 135.181 36.5914 135.181 35.8724C135.181 35.4529 134.996 35.1234 134.627 34.8957C134.257 34.668 133.667 34.4703 132.863 34.2965L131.486 33.991C130.134 33.6914 129.21 33.3618 128.704 33.0143C127.845 32.4271 127.422 31.5044 127.422 30.2521C127.422 29.1077 127.839 28.161 128.68 27.4C129.52 26.6451 130.747 26.2676 132.368 26.2676C133.721 26.2676 134.877 26.6271 135.837 27.3401C136.79 28.0531 137.296 29.0897 137.338 30.4438H134.788C134.74 29.6769 134.4 29.1316 133.763 28.8081C133.34 28.5924 132.809 28.4905 132.184 28.4905C131.48 28.4905 130.926 28.6283 130.503 28.904C130.08 29.1796 129.877 29.569 129.877 30.0664C129.877 30.5217 130.086 30.8633 130.497 31.0909C130.759 31.2407 131.326 31.4145 132.184 31.6182L134.412 32.1455C135.39 32.3792 136.123 32.6848 136.611 33.0742C137.368 33.6734 137.749 34.5422 137.749 35.6806C137.749 36.849 137.302 37.8137 136.403 38.5866C135.503 39.3596 134.239 39.7431 132.601 39.7431C130.926 39.7431 129.615 39.3656 128.656 38.6046C127.696 37.8437 127.22 36.8011 127.22 35.4709H129.752V35.4649Z" fill="white"/>
<path d="M148.833 26.6392V28.8981H145.037V39.4076H142.368V28.8981H138.554V26.6392H148.833Z" fill="white"/>
<path d="M152.713 26.6392H155.716L160.209 39.4076H157.331L156.491 36.7832H151.813L150.955 39.4076H148.178L152.713 26.6392ZM152.54 34.5842H155.793L154.19 29.5631L152.54 34.5842Z" fill="white"/>
<path d="M169.749 26.6392V28.8981H165.954V39.4076H163.278V28.8981H159.464V26.6392H169.749Z" fill="white"/>
<path d="M180.69 28.8981H173.968V31.6063H180.136V33.8233H173.968V37.1068H181V39.4016H171.376V26.6392H180.69V28.8981Z" fill="white"/>
<path d="M42.6727 30.2584L47.7379 25.1594V0L30.1587 17.6817L17.6447 30.2644L0 48H25.022L30.1528 42.8411L35.2895 48H60.3115L42.6727 30.2584ZM43.8884 9.33516V23.5596L39.9494 27.5261L37.2977 24.8598L32.876 20.4139L43.8884 9.33516ZM32.876 40.1029L30.1587 37.3706L27.4354 40.1088L23.431 44.1353H9.29015L20.368 32.9966L23.0913 30.2584L30.1647 23.1462L39.9614 32.9966L51.0392 44.1353H36.8865L32.876 40.1029Z" fill="#E3572D"/>
</g>
<defs>
<clipPath id="clip0_2171_2425">
<rect width="181" height="48" fill="white"/>
</clipPath>
</defs>
</svg>
