<svg width="184" height="35" viewBox="0 0 184 35" fill="none" xmlns="http://www.w3.org/2000/svg">
<path fill-rule="evenodd" clip-rule="evenodd" d="M31.9999 5.35107C21.3331 11.5835 10.6668 17.8159 0 24.0483V35.0003L15.9997 25.6517V20.176L31.9999 10.8274V5.35107Z" fill="#C2DF93"/>
<path fill-rule="evenodd" clip-rule="evenodd" d="M0 20.3006L25.3722 5.47629L16.0003 0L0 9.5634V20.3006Z" fill="#E3572D"/>
<path fill-rule="evenodd" clip-rule="evenodd" d="M25.1583 34.9995L32 31.0017V20.0503L16.0004 29.3989V34.9995H25.1583Z" fill="#E3572D"/>
<path d="M184 6.36843V3.11496H171.046V6.36843H175.803V19.1538H179.243V6.36843H184ZM168.411 19.1538V3.11496H165.016V12.9903L157.69 3.11496H154.519V19.1538H157.914V8.9572L165.485 19.1531H168.411V19.1538ZM151.437 19.1538V16.0146H142.949V12.6462H150.32V9.50693H142.949V6.25273H151.325V3.11349H139.555V19.1524H151.437V19.1538ZM135.802 19.1538V3.11496H132.094L127.985 9.8975L123.876 3.11496H120.168V19.1538H123.562V8.75086L127.917 15.5334H128.006L132.407 8.68233V19.1538H135.802ZM117.533 6.36843V3.11496H104.579V6.36843H109.336V19.1538H112.776V6.36843H117.533ZM99.1071 8.63664C99.1071 9.32418 98.8801 9.87392 98.4262 10.2866C97.9722 10.6993 97.3207 10.9049 96.4717 10.9049H92.9879V6.29916H96.4049C97.2532 6.29916 97.9162 6.49002 98.3924 6.87174C98.8687 7.25419 99.1071 7.82677 99.1071 8.59021V8.63664ZM103.061 19.1538L99.2414 13.4258C100.238 13.0441 101.047 12.4443 101.664 11.627C102.282 10.8098 102.592 9.75159 102.592 8.45389V8.4082C102.592 6.74351 102.074 5.44507 101.039 4.51288C100.004 3.58142 98.5562 3.11496 96.6951 3.11496H89.548V19.1538H92.9872V14.0213H95.6895L99.0396 19.1538H103.061ZM80.8817 12.4406H76.7278L78.8051 7.23945L80.8817 12.4406ZM87.136 19.1538L80.4357 3H77.2644L70.5641 19.1538H74.0708L75.5002 15.5562H82.1115L83.5409 19.1538H87.136ZM65.8729 8.77444C65.8729 9.46198 65.6351 10.0382 65.1582 10.5047C64.6819 10.9704 64.0118 11.2033 63.1484 11.2033H60.4239V6.29989H63.0816C63.945 6.29989 64.6266 6.50623 65.1251 6.9189C65.6243 7.33157 65.8729 7.93436 65.8729 8.72875V8.77444ZM69.3573 8.70517V8.65948C69.3573 7.83488 69.2194 7.08249 68.9436 6.40232C68.6685 5.72215 68.2734 5.13778 67.7598 4.64921C67.2463 4.16064 66.6206 3.7826 65.8836 3.5151C65.1467 3.2476 64.3091 3.11422 63.371 3.11422H56.9832V19.1531H60.4231V14.3411H63.0363C63.9148 14.3411 64.738 14.2224 65.5044 13.9859C66.2708 13.7493 66.941 13.3934 67.5149 12.9203C68.0881 12.4465 68.5385 11.8584 68.866 11.1561C69.1936 10.4546 69.3573 9.63737 69.3573 8.70517ZM48.3184 12.4406H44.1644L46.2418 7.23945L48.3184 12.4406ZM54.5719 19.1538L47.8716 3H44.7003L38 19.1538H41.5067L42.9362 15.5562H49.5474L50.9768 19.1538H54.5719Z" fill="white"/>
<path d="M184 28.7388L183.321 28.035C183.063 28.2811 182.803 28.4758 182.539 28.6198C182.275 28.7638 181.959 28.835 181.592 28.835C181.305 28.835 181.04 28.7777 180.797 28.6631C180.553 28.5485 180.342 28.3921 180.165 28.193C179.987 27.9932 179.849 27.761 179.752 27.4936C179.655 27.227 179.606 26.9412 179.606 26.6356C179.606 26.3308 179.655 26.0465 179.752 25.7828C179.849 25.5183 179.987 25.2884 180.165 25.0915C180.343 24.8954 180.553 24.7404 180.797 24.6258C181.04 24.5112 181.305 24.4546 181.592 24.4546C181.936 24.4546 182.243 24.5244 182.512 24.6647C182.782 24.8057 183.037 24.9901 183.277 25.2193L183.956 24.4193C183.813 24.2783 183.661 24.1497 183.501 24.0329C183.34 23.9154 183.165 23.814 182.976 23.7296C182.787 23.6443 182.578 23.5782 182.352 23.5319C182.126 23.4849 181.875 23.4614 181.6 23.4614C181.141 23.4614 180.723 23.5444 180.344 23.7119C179.965 23.8787 179.638 24.1079 179.363 24.398C179.088 24.6882 178.875 25.0269 178.723 25.414C178.571 25.8011 178.495 26.214 178.495 26.654C178.495 27.0999 178.572 27.5164 178.727 27.9028C178.882 28.29 179.095 28.6257 179.367 28.91C179.64 29.1942 179.962 29.4183 180.336 29.5821C180.708 29.7467 181.115 29.8282 181.556 29.8282C181.837 29.8282 182.094 29.8032 182.326 29.7533C182.558 29.7033 182.772 29.6299 182.967 29.5336C183.162 29.4367 183.344 29.3228 183.513 29.1906C183.683 29.0598 183.845 28.9085 184 28.7388ZM172.3 29.7239H176.515V28.7476H173.35V23.5665H172.3V29.7239ZM165.494 29.7239H169.709V28.7476H166.544V23.5665H165.494V29.7239ZM156.979 30.551L157.092 30.9999C157.527 30.9646 157.857 30.8353 158.081 30.6128C158.304 30.3902 158.416 30.0324 158.416 29.5402V28.5199H157.272V29.7246H157.711C157.75 30.1691 157.507 30.4453 156.979 30.551ZM152.452 26.2147L154.954 23.5672H153.656L150.792 26.6635V23.5672H149.742V29.7239H150.792V27.9381L151.728 26.953L153.784 29.7239H155.066L152.452 26.2147ZM145.887 25.5771C145.887 25.8952 145.775 26.1486 145.55 26.3359C145.326 26.5254 145.024 26.6187 144.644 26.6187H143.092V24.5435H144.635C145.033 24.5435 145.341 24.6294 145.558 24.8043C145.778 24.9776 145.887 25.2355 145.887 25.5771ZM147.151 29.7239L145.525 27.393C145.738 27.3342 145.931 27.2512 146.107 27.1418C146.281 27.0338 146.432 26.9016 146.558 26.7466C146.684 26.5908 146.783 26.4123 146.854 26.2096C146.926 26.0075 146.962 25.7776 146.962 25.519C146.962 25.2201 146.911 24.949 146.808 24.7058C146.704 24.4627 146.556 24.257 146.364 24.0902C146.173 23.9235 145.938 23.7942 145.659 23.7031C145.381 23.612 145.07 23.5665 144.726 23.5665H142.043V29.7232H143.092V27.5767H144.421L145.905 29.7232H147.151V29.7239ZM138.169 26.654C138.169 26.953 138.119 27.2358 138.019 27.5032C137.918 27.7699 137.78 28.002 137.601 28.1981C137.423 28.3943 137.21 28.5493 136.96 28.6639C136.711 28.7785 136.437 28.8358 136.138 28.8358C135.841 28.8358 135.565 28.777 135.313 28.6595C135.061 28.5419 134.844 28.384 134.663 28.1849C134.483 27.9851 134.342 27.753 134.242 27.4863C134.142 27.2189 134.092 26.9361 134.092 26.6371C134.092 26.3381 134.142 26.0553 134.242 25.7879C134.342 25.5212 134.482 25.2898 134.659 25.093C134.837 24.8968 135.051 24.7418 135.3 24.6272C135.549 24.5126 135.823 24.4561 136.122 24.4561C136.419 24.4561 136.694 24.5148 136.947 24.6316C137.2 24.7492 137.416 24.9071 137.596 25.1062C137.777 25.306 137.917 25.5389 138.018 25.8048C138.119 26.0722 138.169 26.355 138.169 26.654ZM139.279 26.6371C139.279 26.203 139.201 25.7923 139.046 25.4059C138.892 25.0195 138.676 24.6816 138.401 24.3944C138.125 24.1071 137.795 23.8794 137.412 23.7127C137.027 23.5452 136.603 23.4622 136.138 23.4622C135.674 23.4622 135.25 23.5474 134.865 23.7171C134.481 23.8868 134.149 24.1174 133.867 24.4076C133.587 24.6978 133.369 25.0364 133.214 25.4235C133.059 25.8107 132.981 26.2213 132.981 26.6547C132.981 27.0889 133.059 27.4995 133.214 27.8859C133.368 28.2731 133.584 28.6102 133.859 28.8975C134.134 29.1847 134.464 29.4124 134.848 29.5792C135.232 29.7467 135.657 29.8297 136.122 29.8297C136.586 29.8297 137.01 29.7445 137.395 29.5748C137.779 29.4051 138.111 29.1744 138.392 28.8842C138.673 28.5941 138.891 28.2554 139.046 27.8683C139.201 27.4812 139.279 27.0705 139.279 26.6371ZM124.612 28.132L123.175 23.5672H122.031L124.13 29.768H125.041L126.52 25.3442L127.999 29.768H128.911L131.009 23.5672H129.9L128.464 28.132L126.984 23.5496H126.09L124.612 28.132ZM117.986 24.5699H119.896V23.5672H115.011V24.5699H116.92V29.7239H117.986V24.5699ZM112.651 23.5672H108.196V29.7239H112.694V28.7476H109.245V27.1028H112.264V26.1266H109.245V24.5435H112.651V23.5672ZM104.116 27.8242L100.899 23.5672H99.9199V29.7239H100.969V25.3442L104.282 29.7239H105.166V23.5672H104.116V27.8242ZM91.8256 25.5771C91.8256 25.8952 91.7135 26.1486 91.4894 26.3359C91.2653 26.5254 90.9628 26.6187 90.5828 26.6187H89.0305V24.5435H90.5742C90.9715 24.5435 91.2796 24.6294 91.4973 24.8043C91.7164 24.9776 91.8256 25.2355 91.8256 25.5771ZM93.0899 29.7239L91.4643 27.393C91.6769 27.3342 91.8701 27.2512 92.0454 27.1418C92.22 27.0338 92.3708 26.9016 92.4965 26.7466C92.6229 26.5908 92.7221 26.4123 92.7932 26.2096C92.865 26.0075 92.9009 25.7776 92.9009 25.519C92.9009 25.2201 92.8499 24.949 92.7465 24.7058C92.6431 24.4627 92.4951 24.257 92.3033 24.0902C92.1115 23.9235 91.8766 23.7942 91.5979 23.7031C91.3199 23.612 91.0088 23.5665 90.6647 23.5665H87.9817V29.7232H89.0312V27.5767H90.3594L91.8435 29.7232H93.0899V29.7239ZM84.1077 26.654C84.1077 26.953 84.0574 27.2358 83.9576 27.5032C83.857 27.7699 83.7176 28.002 83.5402 28.1981C83.362 28.3943 83.1487 28.5493 82.8994 28.6639C82.6502 28.7785 82.3765 28.8358 82.0784 28.8358C81.7802 28.8358 81.5051 28.777 81.253 28.6595C81.0008 28.5419 80.7839 28.384 80.6036 28.1849C80.4233 27.9851 80.2825 27.753 80.1819 27.4863C80.0821 27.2189 80.0318 26.9361 80.0318 26.6371C80.0318 26.3381 80.0821 26.0553 80.1819 25.7879C80.2825 25.5212 80.4211 25.2898 80.5993 25.093C80.7767 24.8968 80.9908 24.7418 81.24 24.6272C81.4893 24.5126 81.763 24.4561 82.0611 24.4561C82.3592 24.4561 82.6336 24.5148 82.8865 24.6316C83.1386 24.7492 83.3556 24.9071 83.5359 25.1062C83.7169 25.306 83.857 25.5389 83.9576 25.8048C84.0574 26.0722 84.1077 26.355 84.1077 26.654ZM85.2175 26.6371C85.2175 26.203 85.1399 25.7923 84.9848 25.4059C84.8303 25.0195 84.6148 24.6816 84.3397 24.3944C84.0639 24.1071 83.7349 23.8794 83.3505 23.7127C82.9662 23.5452 82.5417 23.4622 82.0776 23.4622C81.6129 23.4622 81.189 23.5474 80.8047 23.7171C80.4204 23.8868 80.0878 24.1174 79.807 24.4076C79.5261 24.6978 79.3084 25.0364 79.1533 25.4235C78.9981 25.8107 78.9212 26.2213 78.9212 26.6547C78.9212 27.0889 78.9988 27.4995 79.1533 27.8859C79.3077 28.2731 79.5232 28.6102 79.7983 28.8975C80.0735 29.1847 80.4032 29.4124 80.7875 29.5792C81.1718 29.7467 81.5964 29.8297 82.0611 29.8297C82.5252 29.8297 82.9497 29.7445 83.334 29.5748C83.7183 29.4051 84.0502 29.1744 84.3318 28.8842C84.6127 28.5941 84.8303 28.2554 84.9855 27.8683C85.1399 27.4812 85.2175 27.0705 85.2175 26.6371ZM75.0055 24.5699H76.9149V23.5672H72.0302V24.5699H73.9388V29.7239H75.0055V24.5699ZM66.4881 25.1767C66.4881 24.9718 66.575 24.7977 66.7467 24.6537C66.9184 24.5104 67.1598 24.4384 67.4694 24.4384C67.7445 24.4384 68.0168 24.4928 68.2854 24.6008C68.5555 24.7088 68.8278 24.866 69.1029 25.0709L69.6711 24.2533C69.3615 24.0014 69.0296 23.8096 68.6776 23.6774C68.3249 23.5452 67.9277 23.4798 67.4859 23.4798C67.1878 23.4798 66.9127 23.5224 66.662 23.6076C66.4098 23.6928 66.195 23.814 66.0155 23.9727C65.8366 24.1314 65.6965 24.3202 65.5931 24.5406C65.4911 24.7602 65.4393 25.0048 65.4393 25.2752C65.4393 25.5616 65.4832 25.8055 65.573 26.0046C65.6613 26.2037 65.792 26.3741 65.9609 26.5144C66.1304 26.6555 66.3409 26.7723 66.5908 26.8663C66.8415 26.9603 67.1267 27.0455 67.4493 27.1212C67.7301 27.1917 67.9586 27.2593 68.1346 27.324C68.3098 27.3886 68.4471 27.4576 68.5491 27.5311C68.6489 27.6046 68.7179 27.6854 68.7552 27.7728C68.7926 27.8609 68.8105 27.9608 68.8105 28.0718C68.8105 28.312 68.7143 28.503 68.5225 28.644C68.3307 28.7843 68.0714 28.8549 67.7438 28.8549C67.3659 28.8549 67.0276 28.7858 66.7288 28.6484C66.4307 28.5103 66.1354 28.312 65.843 28.0541L65.2066 28.8284C65.5679 29.1627 65.9601 29.4102 66.3847 29.5718C66.8092 29.7327 67.2539 29.8135 67.7179 29.8135C68.0333 29.8135 68.3228 29.7724 68.5864 29.6901C68.8493 29.6086 69.0756 29.4881 69.2616 29.3294C69.4491 29.1707 69.5957 28.9775 69.7013 28.7491C69.8062 28.5199 69.8593 28.2591 69.8593 27.966C69.8593 27.7074 69.8177 27.4841 69.7343 27.2931C69.651 27.1028 69.5282 26.9353 69.3672 26.7921C69.2071 26.6481 69.003 26.5269 68.7595 26.427C68.516 26.3278 68.2351 26.236 67.9198 26.1545C67.6317 26.0847 67.3954 26.0171 67.2072 25.9525C67.0211 25.8878 66.8746 25.8173 66.7676 25.7409C66.6612 25.6645 66.588 25.5829 66.5477 25.4948C66.5082 25.4052 66.4881 25.3001 66.4881 25.1767ZM62.8131 23.5672H58.3579V29.7239H62.8562V28.7476H59.4074V27.1028H62.4266V26.1266H59.4074V24.5435H62.8131V23.5672ZM52.8942 28.2995L51.0796 23.5672H49.9094L52.4122 29.768H53.341L55.8437 23.5672H54.7001L52.8942 28.2995ZM46.345 27.8242L43.1275 23.5672H42.1484V29.7239H43.1979V25.3442L46.5102 29.7239H47.3945V23.5672H46.345V27.8242ZM38 23.5672V29.7239H39.0488V23.5672H38Z" fill="white"/>
</svg>
